<svg xmlns="http://www.w3.org/2000/svg" xmlns:xlink="http://www.w3.org/1999/xlink" width="96" zoomAndPan="magnify" viewBox="0 0 72 72" height="96" preserveAspectRatio="xMidYMid meet" version="1.0"><defs><clipPath id="0fa245351e"><path d="M 36 0 C 16.117188 0 0 16.117188 0 36 C 0 55.882812 16.117188 72 36 72 C 55.882812 72 72 55.882812 72 36 C 72 16.117188 55.882812 0 36 0 Z M 36 0 " clip-rule="nonzero"/></clipPath><clipPath id="39383309a5"><path d="M 4.277344 32 L 40 32 L 40 39 L 4.277344 39 Z M 4.277344 32 " clip-rule="nonzero"/></clipPath><clipPath id="75adbd2e46"><path d="M 30 20.222656 L 68 20.222656 L 68 51.722656 L 30 51.722656 Z M 30 20.222656 " clip-rule="nonzero"/></clipPath></defs><g clip-path="url(#0fa245351e)"><rect x="-7.2" width="86.4" fill="#d8d5d5" y="-7.2" height="86.4" fill-opacity="1"/></g><g clip-path="url(#39383309a5)"><path fill="#000000" d="M 25.269531 37.480469 L 34.121094 37.480469 C 34.386719 37.480469 39.460938 36.398438 39.460938 36.398438 C 39.9375 36.308594 39.9375 35.625 39.460938 35.535156 C 39.460938 35.535156 34.386719 34.453125 34.121094 34.453125 L 25.269531 34.453125 C 24.746094 33.546875 23.773438 32.9375 22.65625 32.9375 L 7.355469 32.9375 C 5.6875 32.9375 4.335938 34.292969 4.335938 35.96875 C 4.335938 37.640625 5.6875 38.996094 7.355469 38.996094 L 22.65625 38.996094 C 23.773438 38.996094 24.746094 38.386719 25.269531 37.480469 Z M 25.269531 37.480469 " fill-opacity="1" fill-rule="nonzero"/></g><g clip-path="url(#75adbd2e46)"><path fill="#000000" d="M 35.726562 50.742188 L 64.675781 39.5625 C 67.957031 38.296875 67.957031 33.636719 64.675781 32.371094 L 35.726562 21.191406 C 33.210938 20.21875 30.507812 22.082031 30.507812 24.789062 L 30.507812 32.886719 L 41.792969 35.066406 C 43.433594 35.382812 43.433594 36.550781 41.792969 36.867188 L 30.507812 39.046875 L 30.507812 47.144531 C 30.507812 49.851562 33.210938 51.714844 35.726562 50.742188 Z M 35.726562 50.742188 " fill-opacity="1" fill-rule="nonzero"/></g></svg>