<svg xmlns="http://www.w3.org/2000/svg" xmlns:xlink="http://www.w3.org/1999/xlink" width="96" zoomAndPan="magnify" viewBox="0 0 72 72" height="96" preserveAspectRatio="xMidYMid meet" version="1.0"><defs><clipPath id="b6f4755ed7"><path d="M 36 0 C 16.117188 0 0 16.117188 0 36 C 0 55.882812 16.117188 72 36 72 C 55.882812 72 72 55.882812 72 36 C 72 16.117188 55.882812 0 36 0 Z M 36 0 " clip-rule="nonzero"/></clipPath><clipPath id="a4ed3acf97"><path d="M 8.144531 37 L 12 37 L 12 46 L 8.144531 46 Z M 8.144531 37 " clip-rule="nonzero"/></clipPath><clipPath id="3793b5d415"><path d="M 13 21 L 43 21 L 43 64.585938 L 13 64.585938 Z M 13 21 " clip-rule="nonzero"/></clipPath><clipPath id="6197c77cc4"><path d="M 26 6.085938 L 43 6.085938 L 43 29 L 26 29 Z M 26 6.085938 " clip-rule="nonzero"/></clipPath><clipPath id="fd6c3132cc"><path d="M 48 6.085938 L 51 6.085938 L 51 61 L 48 61 Z M 48 6.085938 " clip-rule="nonzero"/></clipPath><clipPath id="5da2676786"><path d="M 52.5 6.214844 L 55.375 6.214844 L 55.375 60.621094 L 52.5 60.621094 Z M 52.5 6.214844 " clip-rule="nonzero"/></clipPath><clipPath id="15ac3ea34f"><path d="M 43 6.085938 L 47 6.085938 L 47 61 L 43 61 Z M 43 6.085938 " clip-rule="nonzero"/></clipPath></defs><g clip-path="url(#b6f4755ed7)"><rect x="-7.2" width="86.4" fill="#d8d5d5" y="-7.2" height="86.4" fill-opacity="1"/></g><path fill="#000000" d="M 17.472656 41.683594 C 17.472656 38.726562 16.335938 35.746094 14.101562 33.472656 C 13.746094 33.109375 13.15625 33.109375 12.796875 33.472656 C 12.4375 33.832031 12.4375 34.429688 12.796875 34.789062 C 14.671875 36.707031 15.621094 39.195312 15.621094 41.683594 C 15.621094 44.195312 14.671875 46.6875 12.796875 48.601562 C 12.4375 48.964844 12.4375 49.558594 12.796875 49.921875 C 13.15625 50.28125 13.746094 50.28125 14.101562 49.921875 C 16.335938 47.644531 17.472656 44.664062 17.472656 41.683594 " fill-opacity="1" fill-rule="nonzero"/><path fill="#000000" d="M 21.625 41.683594 C 21.625 45.75 20.085938 49.792969 17.03125 52.878906 C 16.671875 53.242188 16.671875 53.835938 17.03125 54.199219 C 17.390625 54.558594 17.980469 54.558594 18.335938 54.199219 C 21.75 50.75 23.457031 46.21875 23.457031 41.683594 C 23.457031 37.175781 21.75 32.640625 18.335938 29.195312 C 17.980469 28.832031 17.390625 28.832031 17.03125 29.195312 C 16.671875 29.554688 16.671875 30.152344 17.03125 30.511719 C 20.085938 33.597656 21.625 37.640625 21.625 41.683594 " fill-opacity="1" fill-rule="nonzero"/><path fill="#000000" d="M 31.820312 30.023438 L 24.679688 37.214844 L 25.984375 38.535156 L 33.128906 31.34375 L 31.820312 30.023438 " fill-opacity="1" fill-rule="nonzero"/><g clip-path="url(#a4ed3acf97)"><path fill="#000000" d="M 8.539062 37.769531 C 8.183594 38.132812 8.183594 38.707031 8.539062 39.089844 C 9.257812 39.792969 9.617188 40.75 9.617188 41.683594 C 9.617188 42.644531 9.257812 43.578125 8.539062 44.304688 C 8.183594 44.664062 8.183594 45.261719 8.539062 45.621094 C 8.898438 45.984375 9.488281 45.984375 9.847656 45.621094 C 10.921875 44.535156 11.46875 43.109375 11.46875 41.683594 C 11.46875 40.28125 10.921875 38.855469 9.847656 37.769531 C 9.488281 37.386719 8.898438 37.386719 8.539062 37.769531 " fill-opacity="1" fill-rule="nonzero"/></g><g clip-path="url(#3793b5d415)"><path fill="#000000" d="M 30.261719 24 L 31.316406 22.9375 L 26.238281 21.234375 L 27.925781 26.363281 L 28.957031 25.320312 L 40.226562 36.683594 L 13.703125 63.476562 L 15.007812 64.796875 L 42.1875 37.34375 L 42.839844 36.683594 L 42.1875 36.023438 L 30.261719 24 " fill-opacity="1" fill-rule="nonzero"/></g><g clip-path="url(#6197c77cc4)"><path fill="#000000" d="M 30.261719 8.851562 L 31.316406 7.785156 L 26.238281 6.085938 L 27.925781 11.210938 L 28.957031 10.167969 L 40.226562 21.535156 L 34.941406 26.875 L 36.246094 28.195312 L 42.1875 22.191406 L 42.839844 21.535156 L 42.1875 20.875 L 30.261719 8.851562 " fill-opacity="1" fill-rule="nonzero"/></g><g clip-path="url(#fd6c3132cc)"><path fill="#000000" d="M 48.128906 60.601562 C 49.054688 60.601562 49.984375 60.601562 50.910156 60.601562 C 50.910156 42.515625 50.910156 24.425781 50.910156 6.320312 C 49.984375 6.320312 49.054688 6.320312 48.128906 6.320312 C 48.128906 24.425781 48.128906 42.515625 48.128906 60.601562 " fill-opacity="1" fill-rule="nonzero"/></g><g clip-path="url(#5da2676786)"><path fill="#000000" d="M 52.617188 6.320312 L 52.617188 60.601562 L 55.375 60.601562 L 55.375 6.320312 L 52.617188 6.320312 " fill-opacity="1" fill-rule="nonzero"/></g><g clip-path="url(#15ac3ea34f)"><path fill="#000000" d="M 43.664062 60.601562 L 46.421875 60.601562 L 46.421875 6.320312 L 43.664062 6.320312 L 43.664062 60.601562 " fill-opacity="1" fill-rule="nonzero"/></g></svg>