<svg xmlns="http://www.w3.org/2000/svg" xmlns:xlink="http://www.w3.org/1999/xlink" width="96" zoomAndPan="magnify" viewBox="0 0 72 72" height="96" preserveAspectRatio="xMidYMid meet" version="1.0"><defs><clipPath id="537de27ea2"><path d="M 36 0 C 16.117188 0 0 16.117188 0 36 C 0 55.882812 16.117188 72 36 72 C 55.882812 72 72 55.882812 72 36 C 72 16.117188 55.882812 0 36 0 Z M 36 0 " clip-rule="nonzero"/></clipPath><clipPath id="9fa4f574f1"><path d="M 27 1.535156 L 44 1.535156 L 44 13 L 27 13 Z M 27 1.535156 " clip-rule="nonzero"/></clipPath><clipPath id="a1e7f90b49"><path d="M 39 5 L 51.324219 5 L 51.324219 46 L 39 46 Z M 39 5 " clip-rule="nonzero"/></clipPath></defs><g clip-path="url(#537de27ea2)"><rect x="-7.2" width="86.4" fill="#d8d5d5" y="-7.2" height="86.4" fill-opacity="1"/></g><path fill="#000000" d="M 28.636719 13.796875 C 29.253906 16.964844 32.023438 19.34375 35.378906 19.34375 C 38.730469 19.34375 41.503906 16.964844 42.125 13.796875 C 41.714844 13.851562 41.199219 13.914062 40.539062 13.980469 C 39.242188 14.109375 37.492188 14.214844 35.371094 14.214844 C 33.257812 14.214844 31.507812 14.109375 30.214844 13.980469 C 29.554688 13.914062 29.042969 13.851562 28.636719 13.796875 Z M 28.636719 13.796875 " fill-opacity="1" fill-rule="evenodd"/><g clip-path="url(#9fa4f574f1)"><path fill="#000000" d="M 35.378906 1.964844 C 33.976562 1.964844 32.851562 2.863281 32.851562 3.976562 L 32.851562 5.941406 C 32.851562 6.613281 32.128906 6.648438 31.9375 5.976562 L 31.554688 4.605469 C 29.859375 5.757812 28.78125 7.605469 28.621094 9.640625 C 27.722656 9.613281 27.089844 10.242188 27.089844 11.019531 C 27.089844 11.726562 27.425781 12.246094 28.03125 12.402344 C 28.554688 12.539062 31.230469 12.964844 35.378906 12.964844 C 39.523438 12.964844 42.203125 12.539062 42.722656 12.402344 C 43.328125 12.246094 43.667969 11.726562 43.667969 11.019531 C 43.667969 10.242188 43.03125 9.613281 42.136719 9.640625 C 41.980469 7.605469 40.898438 5.757812 39.199219 4.605469 L 38.816406 5.976562 C 38.625 6.648438 37.910156 6.613281 37.910156 5.941406 L 37.910156 3.976562 C 37.910156 2.863281 36.78125 1.964844 35.378906 1.964844 Z M 35.378906 1.964844 " fill-opacity="1" fill-rule="evenodd"/></g><path fill="#000000" d="M 27.347656 23.214844 C 26.289062 23.214844 25.304688 23.769531 24.769531 24.675781 L 19.890625 32.917969 L 13.4375 32.917969 C 9.363281 32.84375 9.363281 38.933594 13.4375 38.859375 L 21.609375 38.859375 C 22.671875 38.855469 23.65625 38.300781 24.195312 37.390625 L 27.09375 32.476562 L 27.09375 37.871094 C 28.144531 38.082031 29.125 38.40625 30 38.851562 L 30 23.214844 Z M 27.347656 23.214844 " fill-opacity="1" fill-rule="nonzero"/><path fill="#000000" d="M 32.390625 23.214844 L 37.550781 23.214844 L 37.550781 30.21875 L 32.390625 30.21875 Z M 32.390625 23.214844 " fill-opacity="1" fill-rule="nonzero"/><g clip-path="url(#a1e7f90b49)"><path fill="#000000" d="M 48.464844 5.214844 C 48.464844 12.546875 46.792969 18.382812 43.402344 23.335938 C 43.136719 23.265625 42.871094 23.214844 42.59375 23.214844 L 39.945312 23.214844 L 39.945312 38.847656 C 40.820312 38.402344 41.796875 38.074219 42.847656 37.871094 L 42.847656 30.714844 L 45.371094 33.308594 L 45.371094 42.898438 C 45.441406 46.792969 51.296875 46.792969 51.371094 42.898438 L 51.371094 32.113281 C 51.371094 31.339844 51.066406 30.601562 50.527344 30.046875 L 45.695312 25.09375 C 49.492188 19.605469 51.371094 13.054688 51.371094 5.214844 Z M 48.464844 5.214844 " fill-opacity="1" fill-rule="nonzero"/></g><path fill="#000000" d="M 32.390625 32.585938 L 32.390625 40.480469 C 33.542969 41.488281 34.414062 42.648438 34.964844 43.761719 C 35.523438 42.648438 36.398438 41.480469 37.550781 40.472656 L 37.550781 32.585938 Z M 32.390625 32.585938 " fill-opacity="1" fill-rule="nonzero"/><path fill="#000000" d="M 42.847656 40.289062 C 39.46875 41.125 36.882812 43.878906 36.300781 47.339844 L 36.300781 55.699219 C 36.300781 56.089844 36.363281 56.472656 36.492188 56.835938 L 40.339844 67.9375 C 41.863281 72.324219 48.027344 70.0625 46.507812 65.671875 L 42.851562 55.125 L 42.851562 40.289062 Z M 42.847656 40.289062 " fill-opacity="1" fill-rule="nonzero"/><path fill="#000000" d="M 27.09375 40.292969 L 27.09375 42.445312 L 21.546875 54.210938 C 21.148438 55.03125 21.09375 55.976562 21.394531 56.835938 L 25.246094 67.9375 C 26.710938 72.433594 34.003906 70.113281 32.371094 65.671875 L 28.980469 55.921875 L 33.480469 46.601562 C 32.675781 43.496094 30.226562 41.074219 27.09375 40.292969 Z M 27.09375 40.292969 " fill-opacity="1" fill-rule="nonzero"/></svg>