<svg xmlns="http://www.w3.org/2000/svg" xmlns:xlink="http://www.w3.org/1999/xlink" width="96" zoomAndPan="magnify" viewBox="0 0 72 72" height="96" preserveAspectRatio="xMidYMid meet" version="1.0"><defs><clipPath id="39b5d1286e"><path d="M 36 0 C 16.117188 0 0 16.117188 0 36 C 0 55.882812 16.117188 72 36 72 C 55.882812 72 72 55.882812 72 36 C 72 16.117188 55.882812 0 36 0 Z M 36 0 " clip-rule="nonzero"/></clipPath><clipPath id="f1abd4cf31"><path d="M 50 8.285156 L 58.035156 8.285156 L 58.035156 60.785156 L 50 60.785156 Z M 50 8.285156 " clip-rule="nonzero"/></clipPath><clipPath id="a647986d27"><path d="M 11.535156 27 L 39 27 L 39 60.785156 L 11.535156 60.785156 Z M 11.535156 27 " clip-rule="nonzero"/></clipPath></defs><g clip-path="url(#39b5d1286e)"><rect x="-7.2" width="86.4" fill="#d8d5d5" y="-7.2" height="86.4" fill-opacity="1"/></g><g clip-path="url(#f1abd4cf31)"><path fill="#000000" d="M 52.316406 31.136719 C 52.601562 32.269531 51.902344 33.421875 50.765625 33.703125 C 50.734375 33.710938 50.703125 33.71875 50.675781 33.722656 L 50.675781 60.707031 L 58.03125 60.707031 L 58.03125 8.359375 L 50.675781 8.359375 L 50.675781 29.582031 C 51.464844 29.742188 52.113281 30.335938 52.316406 31.136719 Z M 52.316406 31.136719 " fill-opacity="1" fill-rule="nonzero"/></g><path fill="#000000" d="M 45.121094 21.359375 C 45.402344 21.5 45.667969 21.667969 45.914062 21.863281 C 46.160156 22.058594 46.382812 22.273438 46.585938 22.515625 C 46.789062 22.753906 46.96875 23.007812 47.121094 23.28125 C 47.273438 23.554688 47.398438 23.839844 47.492188 24.136719 C 47.589844 24.433594 47.65625 24.738281 47.691406 25.050781 C 47.726562 25.359375 47.730469 25.671875 47.707031 25.980469 C 47.679688 26.292969 47.621094 26.597656 47.535156 26.898438 C 47.449219 27.199219 47.332031 27.488281 47.1875 27.765625 C 47.046875 28.042969 46.875 28.304688 46.679688 28.550781 C 46.484375 28.792969 46.265625 29.019531 46.023438 29.21875 C 45.785156 29.421875 45.527344 29.597656 45.25 29.75 C 44.972656 29.902344 44.6875 30.023438 44.386719 30.117188 C 44.085938 30.214844 43.78125 30.28125 43.46875 30.316406 C 43.15625 30.351562 42.839844 30.355469 42.527344 30.328125 C 42.214844 30.304688 41.90625 30.246094 41.601562 30.160156 C 41.300781 30.074219 41.007812 29.960938 40.730469 29.816406 C 40.449219 29.671875 40.1875 29.503906 39.9375 29.308594 C 39.691406 29.117188 39.46875 28.898438 39.265625 28.660156 C 39.0625 28.421875 38.882812 28.164062 38.730469 27.894531 C 38.578125 27.621094 38.453125 27.332031 38.359375 27.035156 C 38.261719 26.738281 38.195312 26.433594 38.160156 26.125 C 38.125 25.8125 38.121094 25.503906 38.144531 25.191406 C 38.171875 24.878906 38.230469 24.574219 38.316406 24.273438 C 38.402344 23.972656 38.519531 23.683594 38.664062 23.40625 C 38.808594 23.128906 38.976562 22.867188 39.171875 22.625 C 39.367188 22.378906 39.585938 22.15625 39.828125 21.953125 C 40.066406 21.753906 40.324219 21.578125 40.601562 21.425781 C 40.878906 21.273438 41.164062 21.148438 41.464844 21.054688 C 41.765625 20.960938 42.070312 20.894531 42.382812 20.859375 C 42.695312 20.824219 43.011719 20.820312 43.324219 20.84375 C 43.636719 20.871094 43.945312 20.925781 44.25 21.011719 C 44.550781 21.101562 44.84375 21.214844 45.121094 21.359375 Z M 45.121094 21.359375 " fill-opacity="1" fill-rule="nonzero"/><g clip-path="url(#a647986d27)"><path fill="#000000" d="M 12.515625 59.503906 C 13.496094 60.589844 15.183594 60.683594 16.277344 59.707031 C 22.332031 54.316406 26.09375 49.066406 28.070312 45.867188 L 31.882812 49.390625 L 27.464844 56.613281 C 26.703125 57.863281 27.101562 59.488281 28.359375 60.246094 C 28.792969 60.503906 29.269531 60.628906 29.742188 60.628906 C 30.640625 60.628906 31.519531 60.175781 32.019531 59.355469 L 37.5625 50.296875 C 38.21875 49.226562 38.027344 47.847656 37.105469 46.992188 L 31.441406 41.753906 C 33.03125 38.921875 35.539062 36.339844 37.273438 34.402344 C 37.382812 34.304688 37.484375 34.199219 37.582031 34.089844 C 35.722656 33.769531 34.480469 33.390625 34.113281 33.273438 C 33.558594 33.085938 33.121094 32.707031 32.867188 32.199219 C 32.617188 31.691406 32.578125 31.121094 32.761719 30.585938 C 33.054688 29.726562 33.867188 29.148438 34.78125 29.148438 C 35.015625 29.148438 35.246094 29.1875 35.464844 29.261719 C 35.503906 29.273438 35.53125 29.28125 35.570312 29.292969 C 35.664062 29.324219 35.800781 29.363281 35.984375 29.414062 C 36.332031 29.507812 36.894531 29.648438 37.613281 29.792969 C 37.941406 29.859375 38.320312 29.925781 38.738281 29.992188 C 38.621094 29.628906 38.429688 29.296875 38.152344 29.019531 C 36.816406 27.714844 34.039062 27.226562 31.527344 29.347656 C 28.089844 32.289062 26.394531 34.523438 24.460938 38.847656 C 24.011719 40.089844 24.003906 41.074219 24.257812 41.871094 C 22.832031 44.375 19.21875 49.992188 12.71875 55.769531 C 11.625 56.746094 11.53125 58.417969 12.515625 59.503906 Z M 12.515625 59.503906 " fill-opacity="1" fill-rule="nonzero"/></g><path fill="#000000" d="M 35.871094 29.820312 C 35.683594 29.769531 35.539062 29.726562 35.449219 29.699219 C 35.402344 29.683594 35.367188 29.675781 35.347656 29.667969 C 35.328125 29.660156 35.328125 29.660156 35.328125 29.660156 C 34.4375 29.359375 33.46875 29.835938 33.167969 30.71875 C 32.863281 31.605469 33.339844 32.566406 34.234375 32.867188 C 34.300781 32.886719 35.667969 33.347656 37.886719 33.710938 C 39.375 33.957031 41.242188 34.160156 43.355469 34.160156 C 45.574219 34.160156 48.0625 33.9375 50.660156 33.292969 C 50.664062 33.292969 50.667969 33.289062 50.675781 33.289062 C 51.578125 33.054688 52.128906 32.144531 51.902344 31.242188 C 51.746094 30.621094 51.257812 30.164062 50.675781 30.011719 C 50.40625 29.945312 50.121094 29.9375 49.832031 30.011719 C 47.550781 30.574219 45.339844 30.777344 43.355469 30.777344 C 41.648438 30.777344 40.109375 30.628906 38.84375 30.4375 C 38.363281 30.363281 37.925781 30.285156 37.53125 30.207031 C 36.8125 30.066406 36.25 29.925781 35.871094 29.820312 Z M 35.871094 29.820312 " fill-opacity="1" fill-rule="nonzero"/></svg>