<svg xmlns="http://www.w3.org/2000/svg" xmlns:xlink="http://www.w3.org/1999/xlink" width="96" zoomAndPan="magnify" viewBox="0 0 72 72" height="96" preserveAspectRatio="xMidYMid meet" version="1.0"><defs><clipPath id="e595bd71b1"><path d="M 36 0 C 16.117188 0 0 16.117188 0 36 C 0 55.882812 16.117188 72 36 72 C 55.882812 72 72 55.882812 72 36 C 72 16.117188 55.882812 0 36 0 Z M 36 0 " clip-rule="nonzero"/></clipPath><clipPath id="2eee369fa7"><path d="M 11 9.550781 L 61 9.550781 L 61 62.800781 L 11 62.800781 Z M 11 9.550781 " clip-rule="nonzero"/></clipPath><clipPath id="76935ee13c"><path d="M 10.945312 9.550781 L 61.195312 9.550781 L 61.195312 62.800781 L 10.945312 62.800781 Z M 10.945312 9.550781 " clip-rule="nonzero"/></clipPath></defs><g clip-path="url(#e595bd71b1)"><rect x="-7.2" width="86.4" fill="#d8d5d5" y="-7.2" height="86.4" fill-opacity="1"/></g><g clip-path="url(#2eee369fa7)"><path fill="#000000" d="M 55.859375 62.210938 L 55.859375 62.238281 L 11.347656 49.164062 L 11.347656 11.390625 L 16.292969 9.929688 L 60.804688 23 L 60.804688 60.757812 Z M 55.859375 62.210938 " fill-opacity="1" fill-rule="nonzero"/></g><g clip-path="url(#76935ee13c)"><path fill="#ffffff" d="M 61.183594 23 C 61.183594 22.945312 61.167969 22.894531 61.148438 22.847656 C 61.140625 22.835938 61.136719 22.824219 61.128906 22.8125 C 61.105469 22.773438 61.078125 22.738281 61.042969 22.710938 C 61.039062 22.707031 61.035156 22.699219 61.03125 22.695312 C 61.03125 22.695312 61.027344 22.695312 61.027344 22.695312 C 60.992188 22.667969 60.953125 22.648438 60.910156 22.636719 L 16.398438 9.566406 C 16.328125 9.546875 16.253906 9.546875 16.1875 9.566406 L 11.238281 11.027344 C 11.199219 11.039062 11.160156 11.058594 11.125 11.085938 C 11.125 11.085938 11.121094 11.085938 11.121094 11.085938 C 11.117188 11.089844 11.113281 11.09375 11.109375 11.097656 C 11.074219 11.128906 11.046875 11.164062 11.023438 11.203125 C 11.015625 11.214844 11.011719 11.226562 11.003906 11.238281 C 10.984375 11.285156 10.96875 11.335938 10.96875 11.386719 C 10.96875 11.390625 10.96875 11.390625 10.96875 11.390625 L 10.96875 49.164062 C 10.96875 49.332031 11.078125 49.480469 11.238281 49.527344 L 55.75 62.601562 C 55.785156 62.609375 55.824219 62.613281 55.859375 62.613281 C 55.9375 62.613281 56.019531 62.589844 56.085938 62.539062 C 56.085938 62.539062 56.085938 62.539062 56.089844 62.535156 L 60.910156 61.121094 C 61.074219 61.074219 61.183594 60.925781 61.183594 60.757812 Z M 16.292969 10.324219 L 59.460938 23 L 55.914062 24.035156 L 12.6875 11.386719 Z M 11.726562 48.878906 L 11.726562 11.894531 L 55.480469 24.730469 L 55.480469 61.730469 Z M 56.238281 61.703125 L 56.238281 24.730469 L 60.425781 23.503906 L 60.425781 60.472656 Z M 56.238281 61.703125 " fill-opacity="1" fill-rule="nonzero"/></g></svg>