<svg xmlns="http://www.w3.org/2000/svg" xmlns:xlink="http://www.w3.org/1999/xlink" width="96" zoomAndPan="magnify" viewBox="0 0 72 72" height="96" preserveAspectRatio="xMidYMid meet" version="1.0"><defs><clipPath id="5a57b40526"><path d="M 36 0 C 16.117188 0 0 16.117188 0 36 C 0 55.882812 16.117188 72 36 72 C 55.882812 72 72 55.882812 72 36 C 72 16.117188 55.882812 0 36 0 Z M 36 0 " clip-rule="nonzero"/></clipPath><clipPath id="1080d08e84"><path d="M 17.023438 6.058594 L 55.273438 6.058594 L 55.273438 9 L 17.023438 9 Z M 17.023438 6.058594 " clip-rule="nonzero"/></clipPath><clipPath id="19c66d88bd"><path d="M 17.023438 8 L 37 8 L 37 10 L 17.023438 10 Z M 17.023438 8 " clip-rule="nonzero"/></clipPath><clipPath id="7f53a80b6e"><path d="M 40 8 L 55.273438 8 L 55.273438 10 L 40 10 Z M 40 8 " clip-rule="nonzero"/></clipPath><clipPath id="7d5e06935a"><path d="M 31 62 L 33 62 L 33 66.058594 L 31 66.058594 Z M 31 62 " clip-rule="nonzero"/></clipPath><clipPath id="4e047fcd87"><path d="M 18 37 L 38 37 L 38 66.058594 L 18 66.058594 Z M 18 37 " clip-rule="nonzero"/></clipPath></defs><rect x="-7.2" width="86.4" fill="#ffffff" y="-7.2" height="86.4" fill-opacity="1"/><rect x="-7.2" width="86.4" fill="#ffffff" y="-7.2" height="86.4" fill-opacity="1"/><g clip-path="url(#5a57b40526)"><rect x="-7.2" width="86.4" fill="#d8d5d5" y="-7.2" height="86.4" fill-opacity="1"/></g><g clip-path="url(#1080d08e84)"><path fill="#000000" d="M 36.742188 6.753906 L 41.058594 7.96875 C 41.519531 7.640625 42.117188 7.339844 42.625 7.488281 C 43.410156 7.722656 43.476562 8.296875 43.945312 8.597656 L 55.273438 8.597656 L 55.273438 6.066406 L 17.023438 6.066406 L 17.023438 8.597656 L 36.421875 8.597656 C 36.429688 8.136719 36.484375 7.65625 36.621094 7.179688 Z M 36.742188 6.753906 " fill-opacity="1" fill-rule="nonzero"/></g><g clip-path="url(#19c66d88bd)"><path fill="#000000" d="M 36.429688 8.980469 L 17.023438 8.980469 L 17.023438 9.40625 L 36.460938 9.40625 C 36.445312 9.265625 36.433594 9.125 36.429688 8.980469 Z M 36.429688 8.980469 " fill-opacity="1" fill-rule="nonzero"/></g><g clip-path="url(#7f53a80b6e)"><path fill="#000000" d="M 55.273438 9.40625 L 55.273438 8.980469 L 40.925781 8.980469 C 40.867188 9.125 40.800781 9.269531 40.730469 9.40625 Z M 55.273438 9.40625 " fill-opacity="1" fill-rule="nonzero"/></g><path fill="#000000" d="M 38.199219 11.863281 C 38.222656 11.785156 38.21875 11.707031 38.203125 11.632812 C 38.78125 11.207031 40.207031 10.007812 40.6875 8.324219 L 38.867188 7.8125 L 37.050781 7.296875 C 36.570312 8.980469 37.148438 10.746094 37.414062 11.410156 C 37.359375 11.464844 37.320312 11.53125 37.296875 11.605469 L 37.21875 11.875 C 37.054688 11.871094 36.886719 11.898438 36.734375 11.960938 C 36.550781 12.035156 36.386719 12.15625 36.253906 12.316406 L 33.773438 15.402344 C 34.542969 15.136719 35.289062 14.988281 35.875 14.988281 C 36.558594 14.988281 36.910156 15.191406 37.085938 15.414062 C 37.164062 15.355469 37.226562 15.273438 37.253906 15.171875 L 37.398438 14.671875 L 38.105469 13.789062 C 38.109375 13.785156 38.113281 13.785156 38.113281 13.78125 C 38.3125 13.527344 38.394531 13.21875 38.359375 12.921875 C 38.332031 12.691406 38.238281 12.46875 38.078125 12.285156 Z M 38.199219 11.863281 " fill-opacity="1" fill-rule="nonzero"/><path fill="#000000" d="M 37.449219 44.953125 L 34.421875 44.953125 L 34.316406 45.6875 L 37.621094 45.6875 L 39.179688 52.414062 L 33.359375 52.414062 L 33.253906 53.148438 L 39.351562 53.148438 L 40.914062 59.875 L 32.300781 59.875 L 32.195312 60.613281 L 41.082031 60.613281 L 42.285156 65.78125 L 43.617188 65.78125 L 37.332031 38.699219 L 35.996094 38.699219 Z M 37.449219 44.953125 " fill-opacity="1" fill-rule="nonzero"/><path fill="#000000" d="M 29.105469 42.183594 L 28.65625 44.507812 L 29.433594 44.507812 Z M 29.105469 42.183594 " fill-opacity="1" fill-rule="nonzero"/><path fill="#000000" d="M 30.496094 51.972656 L 29.664062 46.128906 L 28.347656 46.128906 L 29.175781 51.972656 Z M 30.496094 51.972656 " fill-opacity="1" fill-rule="nonzero"/><path fill="#000000" d="M 29.40625 53.59375 L 30.191406 59.109375 L 30.851562 54.472656 L 30.726562 53.59375 Z M 29.40625 53.59375 " fill-opacity="1" fill-rule="nonzero"/><g clip-path="url(#7d5e06935a)"><path fill="#000000" d="M 32.496094 66.054688 L 31.960938 62.269531 L 31.433594 65.980469 Z M 32.496094 66.054688 " fill-opacity="1" fill-rule="nonzero"/></g><path fill="#000000" d="M 28.957031 38.257812 L 29.957031 38.257812 L 30.070312 37.566406 L 29.132812 38.160156 C 29.074219 38.195312 29.015625 38.226562 28.957031 38.257812 Z M 28.957031 38.257812 " fill-opacity="1" fill-rule="nonzero"/><g clip-path="url(#4e047fcd87)"><path fill="#000000" d="M 33.789062 42.304688 C 33.683594 42.933594 33.320312 43.460938 32.820312 43.789062 L 32.652344 44.953125 L 28.570312 44.953125 L 28.425781 45.6875 L 32.550781 45.6875 L 31.59375 52.414062 L 22.96875 52.414062 L 23.304688 50.972656 C 23.113281 50.570312 23.046875 50.105469 23.136719 49.632812 L 24.820312 40.917969 L 24.542969 39.890625 L 18.535156 65.78125 L 19.867188 65.78125 L 21.066406 60.613281 L 30.429688 60.613281 L 29.652344 66.054688 L 30.984375 65.960938 L 34.921875 38.257812 L 37.367188 38.257812 L 37.367188 37.175781 L 34.644531 37.175781 Z M 30.53125 59.875 L 21.238281 59.875 L 22.800781 53.148438 L 31.488281 53.148438 Z M 30.53125 59.875 " fill-opacity="1" fill-rule="nonzero"/></g><path fill="#000000" d="M 28.5 20.554688 C 28.492188 20.539062 28.488281 20.523438 28.480469 20.507812 L 26.871094 21.867188 L 26.109375 22.507812 C 26.007812 22.59375 25.925781 22.691406 25.863281 22.800781 C 25.785156 22.914062 25.722656 23.042969 25.691406 23.183594 L 23.414062 32.824219 C 23.304688 33.144531 23.285156 33.5 23.378906 33.851562 L 25.277344 40.902344 L 23.574219 49.714844 C 23.386719 50.675781 24.019531 51.601562 24.984375 51.785156 C 25.097656 51.808594 25.210938 51.816406 25.324219 51.816406 C 26.160156 51.816406 26.902344 51.230469 27.066406 50.382812 L 28.847656 41.171875 C 28.898438 40.910156 28.886719 40.636719 28.816406 40.378906 L 28.191406 38.042969 C 28.433594 38.011719 28.671875 37.925781 28.894531 37.785156 L 32.128906 35.746094 L 32.378906 36.109375 L 30.574219 37.246094 L 29.839844 41.652344 C 29.679688 42.617188 30.335938 43.527344 31.304688 43.6875 C 31.402344 43.703125 31.503906 43.710938 31.597656 43.710938 C 32.453125 43.710938 33.207031 43.097656 33.351562 42.230469 L 34.835938 33.339844 C 34.835938 33.328125 34.835938 33.316406 34.839844 33.304688 C 34.84375 33.273438 34.847656 33.242188 34.847656 33.210938 C 34.851562 33.183594 34.855469 33.15625 34.855469 33.128906 C 34.855469 33.097656 34.855469 33.070312 34.855469 33.039062 C 34.855469 33.011719 34.855469 32.984375 34.855469 32.953125 C 34.851562 32.925781 34.851562 32.898438 34.847656 32.871094 C 34.84375 32.839844 34.839844 32.8125 34.835938 32.78125 C 34.832031 32.753906 34.828125 32.726562 34.820312 32.699219 C 34.816406 32.671875 34.808594 32.640625 34.800781 32.613281 C 34.796875 32.585938 34.789062 32.558594 34.777344 32.53125 C 34.769531 32.503906 34.761719 32.476562 34.75 32.449219 C 34.742188 32.421875 34.730469 32.398438 34.71875 32.371094 C 34.707031 32.34375 34.695312 32.316406 34.683594 32.285156 C 34.671875 32.261719 34.660156 32.238281 34.648438 32.214844 C 34.632812 32.1875 34.613281 32.160156 34.597656 32.132812 C 34.59375 32.121094 34.585938 32.113281 34.582031 32.101562 C 34.574219 32.089844 34.5625 32.078125 34.554688 32.066406 C 34.539062 32.039062 34.519531 32.011719 34.5 31.988281 C 34.484375 31.964844 34.464844 31.941406 34.445312 31.921875 C 34.429688 31.898438 34.410156 31.878906 34.390625 31.855469 C 34.371094 31.835938 34.347656 31.8125 34.328125 31.792969 C 34.308594 31.773438 34.289062 31.753906 34.269531 31.738281 C 34.246094 31.714844 34.222656 31.695312 34.199219 31.675781 C 34.175781 31.660156 34.15625 31.644531 34.132812 31.625 C 34.109375 31.609375 34.085938 31.59375 34.0625 31.578125 C 34.035156 31.558594 34.011719 31.546875 33.984375 31.53125 C 33.960938 31.515625 33.9375 31.503906 33.914062 31.488281 C 33.886719 31.476562 33.859375 31.460938 33.832031 31.449219 C 33.808594 31.4375 33.78125 31.425781 33.757812 31.417969 C 33.730469 31.40625 33.699219 31.394531 33.671875 31.382812 C 33.644531 31.375 33.617188 31.367188 33.59375 31.359375 C 33.5625 31.351562 33.535156 31.34375 33.507812 31.335938 C 33.476562 31.328125 33.449219 31.320312 33.417969 31.316406 C 33.402344 31.3125 33.386719 31.308594 33.371094 31.304688 C 33.359375 31.304688 33.347656 31.304688 33.335938 31.300781 C 33.304688 31.296875 33.273438 31.292969 33.242188 31.289062 C 33.214844 31.289062 33.1875 31.285156 33.160156 31.285156 C 33.128906 31.28125 33.097656 31.28125 33.0625 31.285156 C 33.039062 31.285156 33.011719 31.285156 32.988281 31.285156 C 32.953125 31.285156 32.921875 31.289062 32.886719 31.292969 C 32.863281 31.296875 32.839844 31.296875 32.816406 31.300781 C 32.78125 31.308594 32.746094 31.3125 32.710938 31.320312 C 32.691406 31.324219 32.667969 31.328125 32.648438 31.335938 C 32.613281 31.34375 32.578125 31.355469 32.542969 31.367188 C 32.523438 31.371094 32.5 31.378906 32.480469 31.386719 C 32.449219 31.398438 32.414062 31.410156 32.382812 31.425781 C 32.359375 31.433594 32.339844 31.441406 32.320312 31.453125 C 32.289062 31.46875 32.257812 31.484375 32.226562 31.5 C 32.207031 31.511719 32.183594 31.523438 32.164062 31.535156 C 32.152344 31.542969 32.140625 31.550781 32.125 31.558594 L 31.921875 31.6875 L 33.085938 26.746094 L 33.480469 27.019531 L 35.757812 28.609375 C 35.960938 28.753906 36.199219 28.824219 36.441406 28.824219 C 36.625 28.824219 36.8125 28.78125 36.984375 28.691406 L 41.285156 26.480469 C 41.707031 26.265625 41.941406 25.828125 41.921875 25.382812 L 43.214844 25.863281 L 43.371094 25.449219 L 41.769531 24.851562 C 41.484375 24.351562 40.882812 24.136719 40.347656 24.324219 L 39.410156 23.972656 L 39.203125 23.621094 L 40.8125 24.1875 L 41.09375 23.402344 L 38.066406 22.335938 C 37.601562 22.355469 37.246094 22.554688 36.679688 22.261719 C 36.1875 22.007812 36.046875 21.761719 36.007812 21.613281 L 35.6875 21.5 L 35.40625 22.285156 L 38.582031 23.402344 L 38.5625 23.414062 L 39.109375 24.332031 L 39.800781 24.589844 L 36.535156 26.269531 L 33.949219 24.464844 L 33.1875 23.933594 C 33.042969 23.792969 32.859375 23.6875 32.644531 23.636719 L 29.351562 22.867188 L 29.773438 22.511719 L 29.996094 22.320312 C 29.339844 21.914062 28.808594 21.304688 28.5 20.554688 Z M 28.5 20.554688 " fill-opacity="1" fill-rule="nonzero"/><path fill="#000000" d="M 33.242188 18.296875 C 33.5625 18.207031 33.898438 18.09375 34.242188 17.953125 C 35.871094 17.292969 37.011719 16.316406 36.789062 15.777344 C 36.570312 15.238281 35.066406 15.335938 33.4375 16 C 33.382812 16.019531 33.328125 16.046875 33.273438 16.070312 C 32.492188 15.746094 31.585938 15.71875 30.738281 16.0625 C 29.03125 16.753906 28.214844 18.691406 28.910156 20.386719 C 29.609375 22.082031 31.554688 22.894531 33.261719 22.203125 C 34.898438 21.539062 35.71875 19.722656 35.160156 18.078125 C 34.40625 18.277344 33.722656 18.351562 33.242188 18.296875 Z M 33.242188 18.296875 " fill-opacity="1" fill-rule="nonzero"/><path fill="#000000" d="M 38.097656 22.222656 L 38.140625 22.097656 L 35.78125 21.242188 L 35.722656 21.40625 L 35.996094 21.507812 L 38.082031 22.261719 Z M 38.097656 22.222656 " fill-opacity="1" fill-rule="nonzero"/></svg>