<svg xmlns="http://www.w3.org/2000/svg" xmlns:xlink="http://www.w3.org/1999/xlink" width="96" zoomAndPan="magnify" viewBox="0 0 72 72" height="96" preserveAspectRatio="xMidYMid meet" version="1.0"><defs><clipPath id="fd1e05d1d8"><path d="M 36 0 C 16.117188 0 0 16.117188 0 36 C 0 55.882812 16.117188 72 36 72 C 55.882812 72 72 55.882812 72 36 C 72 16.117188 55.882812 0 36 0 Z M 36 0 " clip-rule="nonzero"/></clipPath><clipPath id="1fd730ef96"><path d="M 3.097656 27.210938 L 69.097656 27.210938 L 69.097656 48.210938 L 3.097656 48.210938 Z M 3.097656 27.210938 " clip-rule="nonzero"/></clipPath></defs><rect x="-7.2" width="86.4" fill="#ffffff" y="-7.2" height="86.4" fill-opacity="1"/><rect x="-7.2" width="86.4" fill="#ffffff" y="-7.2" height="86.4" fill-opacity="1"/><g clip-path="url(#fd1e05d1d8)"><rect x="-7.2" width="86.4" fill="#d8d5d5" y="-7.2" height="86.4" fill-opacity="1"/></g><path fill="#000000" d="M 23.707031 47.367188 L 48.496094 47.367188 L 48.855469 46.636719 L 23.347656 46.636719 Z M 48.164062 46.808594 L 47.980469 47.203125 L 24.226562 47.203125 L 24.039062 46.808594 Z M 48.164062 46.808594 " fill-opacity="1" fill-rule="nonzero"/><path fill="#000000" d="M 17.816406 35.40625 L 23.046875 46.027344 L 49.15625 46.027344 L 54.386719 35.40625 Z M 32.140625 45.84375 L 32.074219 45.382812 L 40.132812 45.382812 L 40.140625 45.320312 L 32.0625 45.320312 L 31.984375 44.773438 L 40.222656 44.773438 L 40.230469 44.707031 L 31.972656 44.707031 L 31.886719 44.132812 L 40.316406 44.132812 L 40.230469 44.707031 L 40.222656 44.773438 L 40.140625 45.320312 L 40.132812 45.382812 L 40.0625 45.84375 Z M 31.777344 43.390625 L 31.683594 42.761719 L 40.519531 42.761719 L 40.425781 43.390625 L 40.417969 43.464844 L 40.328125 44.0625 L 31.878906 44.0625 L 31.789062 43.464844 L 40.417969 43.464844 L 40.425781 43.390625 Z M 40.53125 42.6875 L 31.671875 42.6875 L 31.574219 42.027344 L 40.628906 42.027344 Z M 40.640625 41.945312 L 31.5625 41.945312 L 31.460938 41.253906 L 40.742188 41.253906 Z M 31.449219 41.167969 L 31.339844 40.441406 L 40.863281 40.441406 L 40.878906 40.351562 L 31.328125 40.351562 L 31.210938 39.582031 L 40.992188 39.582031 L 41.007812 39.488281 L 31.199219 39.488281 L 31.078125 38.679688 L 41.125 38.679688 L 41.140625 38.582031 L 31.0625 38.582031 L 30.9375 37.726562 L 41.269531 37.726562 L 41.140625 38.582031 L 41.125 38.679688 L 41.007812 39.488281 L 40.992188 39.582031 L 40.878906 40.351562 L 40.863281 40.441406 L 40.757812 41.167969 Z M 30.921875 37.621094 L 30.785156 36.714844 L 41.417969 36.714844 L 41.433594 36.605469 L 30.769531 36.605469 L 30.644531 35.761719 L 41.558594 35.761719 L 41.433594 36.605469 L 41.417969 36.714844 L 41.285156 37.621094 Z M 31.417969 45.320312 L 23.34375 45.320312 L 23.085938 44.773438 L 31.324219 44.773438 L 31.3125 44.707031 L 23.054688 44.707031 L 22.785156 44.132812 L 31.214844 44.132812 L 31.203125 44.0625 L 22.753906 44.0625 L 22.472656 43.464844 L 31.101562 43.464844 L 31.085938 43.390625 L 22.4375 43.390625 L 22.144531 42.761719 L 30.980469 42.761719 L 30.964844 42.6875 L 22.105469 42.6875 L 21.796875 42.027344 L 30.851562 42.027344 L 30.839844 41.945312 L 21.761719 41.945312 L 21.4375 41.253906 L 30.71875 41.253906 L 30.703125 41.167969 L 21.394531 41.167969 L 21.054688 40.441406 L 30.578125 40.441406 L 30.5625 40.351562 L 21.011719 40.351562 L 20.652344 39.582031 L 30.433594 39.582031 L 30.414062 39.488281 L 20.609375 39.488281 L 20.230469 38.679688 L 30.277344 38.679688 L 30.257812 38.582031 L 20.183594 38.582031 L 19.78125 37.726562 L 30.113281 37.726562 L 30.09375 37.621094 L 19.730469 37.621094 L 19.308594 36.714844 L 29.9375 36.714844 L 29.917969 36.601562 L 19.253906 36.601562 L 18.859375 35.761719 L 29.773438 35.761719 L 29.761719 35.683594 L 29.773438 35.761719 L 29.917969 36.601562 L 30.09375 37.621094 L 30.113281 37.726562 L 30.257812 38.582031 L 30.277344 38.679688 L 30.414062 39.488281 L 30.433594 39.582031 L 30.5625 40.351562 L 30.578125 40.441406 L 30.703125 41.167969 L 30.71875 41.253906 L 30.839844 41.945312 L 30.851562 42.027344 L 30.964844 42.6875 L 30.980469 42.761719 L 31.085938 43.390625 L 31.101562 43.464844 L 31.203125 44.0625 L 31.214844 44.132812 L 31.3125 44.707031 L 31.324219 44.773438 L 31.417969 45.320312 L 31.429688 45.382812 L 31.507812 45.84375 L 31.515625 45.886719 L 31.507812 45.84375 L 23.589844 45.84375 L 23.371094 45.382812 L 31.429688 45.382812 Z M 48.617188 45.84375 L 40.691406 45.84375 L 40.773438 45.382812 L 48.832031 45.382812 Z M 48.863281 45.320312 L 40.785156 45.320312 L 40.878906 44.773438 L 49.117188 44.773438 Z M 49.148438 44.707031 L 40.890625 44.707031 L 40.988281 44.132812 L 49.417969 44.132812 Z M 49.449219 44.0625 L 41 44.0625 L 41.101562 43.464844 L 49.730469 43.464844 Z M 49.765625 43.390625 L 41.113281 43.390625 L 41.222656 42.761719 L 50.0625 42.761719 Z M 50.097656 42.6875 L 41.238281 42.6875 L 41.351562 42.027344 L 50.40625 42.027344 Z M 50.445312 41.945312 L 41.363281 41.945312 L 41.484375 41.253906 L 50.769531 41.253906 Z M 50.808594 41.167969 L 41.496094 41.167969 L 41.621094 40.441406 L 51.148438 40.441406 Z M 51.191406 40.351562 L 41.636719 40.351562 L 41.769531 39.582031 L 51.550781 39.582031 Z M 51.597656 39.488281 L 41.785156 39.488281 L 41.925781 38.679688 L 51.976562 38.679688 Z M 52.023438 38.582031 L 41.941406 38.582031 L 42.089844 37.726562 L 52.421875 37.726562 Z M 52.472656 37.621094 L 42.109375 37.621094 L 42.265625 36.714844 L 52.898438 36.714844 Z M 52.949219 36.605469 L 42.28125 36.605469 L 42.265625 36.695312 L 42.28125 36.605469 L 42.429688 35.761719 L 53.34375 35.761719 Z M 52.949219 36.605469 " fill-opacity="1" fill-rule="nonzero"/><path fill="#000000" d="M 51.296875 46.027344 L 54.015625 46.027344 L 61.195312 35.40625 L 57.390625 35.40625 Z M 60.085938 35.761719 L 53.507812 45.84375 L 52.035156 45.84375 L 58.058594 35.761719 Z M 60.085938 35.761719 " fill-opacity="1" fill-rule="nonzero"/><path fill="#000000" d="M 11.011719 35.40625 L 18.191406 46.027344 L 20.902344 46.027344 L 14.8125 35.40625 Z M 18.695312 45.84375 L 12.117188 35.761719 L 14.148438 35.761719 L 20.167969 45.84375 Z M 18.695312 45.84375 " fill-opacity="1" fill-rule="nonzero"/><path fill="#000000" d="M 55.007812 34.144531 L 55.859375 32.414062 L 16.34375 32.414062 L 17.195312 34.144531 Z M 54.71875 32.828125 L 54.285156 33.757812 L 17.921875 33.757812 L 17.484375 32.828125 Z M 54.71875 32.828125 " fill-opacity="1" fill-rule="nonzero"/><g clip-path="url(#1fd730ef96)"><path fill="#000000" d="M 69.078125 28.261719 C 69.082031 28.214844 69.085938 28.167969 69.078125 28.125 C 69.054688 27.953125 68.945312 27.796875 68.761719 27.664062 C 68.578125 27.53125 68.316406 27.421875 67.992188 27.347656 C 67.664062 27.273438 67.273438 27.230469 66.832031 27.230469 L 5.371094 27.230469 C 4.929688 27.230469 4.539062 27.273438 4.210938 27.347656 C 3.886719 27.421875 3.625 27.53125 3.441406 27.664062 C 3.257812 27.796875 3.148438 27.953125 3.125 28.125 C 3.121094 28.167969 3.121094 28.214844 3.125 28.261719 L 3.125 30.996094 C 3.101562 31.164062 3.164062 31.351562 3.316406 31.542969 L 16.242188 47.699219 C 16.296875 47.769531 16.402344 47.835938 16.542969 47.898438 C 16.6875 47.957031 16.863281 48.011719 17.066406 48.054688 C 17.269531 48.101562 17.496094 48.136719 17.734375 48.160156 C 17.972656 48.1875 18.226562 48.199219 18.480469 48.199219 L 53.722656 48.199219 C 53.976562 48.199219 54.230469 48.1875 54.46875 48.160156 C 54.707031 48.136719 54.933594 48.101562 55.136719 48.054688 C 55.339844 48.011719 55.519531 47.957031 55.660156 47.898438 C 55.800781 47.835938 55.90625 47.769531 55.964844 47.699219 L 68.886719 31.542969 C 69.039062 31.351562 69.101562 31.164062 69.078125 30.996094 Z M 67.917969 31.542969 L 55.378906 47.699219 C 55.339844 47.746094 55.269531 47.792969 55.171875 47.835938 C 55.074219 47.875 54.953125 47.914062 54.8125 47.945312 C 54.671875 47.976562 54.515625 48 54.351562 48.019531 C 54.1875 48.035156 54.011719 48.046875 53.835938 48.046875 L 18.367188 48.046875 C 18.191406 48.046875 18.019531 48.035156 17.851562 48.019531 C 17.6875 48 17.53125 47.976562 17.390625 47.945312 C 17.253906 47.914062 17.128906 47.875 17.035156 47.835938 C 16.9375 47.792969 16.863281 47.746094 16.828125 47.699219 L 4.285156 31.542969 C 4.183594 31.410156 4.144531 31.285156 4.164062 31.167969 C 4.183594 31.050781 4.257812 30.945312 4.386719 30.855469 C 4.515625 30.765625 4.695312 30.691406 4.917969 30.640625 C 5.140625 30.589844 5.402344 30.5625 5.703125 30.5625 L 66.496094 30.5625 C 66.796875 30.5625 67.0625 30.589844 67.285156 30.640625 C 67.507812 30.691406 67.6875 30.765625 67.816406 30.855469 C 67.945312 30.945312 68.023438 31.050781 68.039062 31.167969 C 68.058594 31.285156 68.019531 31.410156 67.917969 31.542969 Z M 67.917969 31.542969 " fill-opacity="1" fill-rule="nonzero"/></g></svg>