<svg xmlns="http://www.w3.org/2000/svg" xmlns:xlink="http://www.w3.org/1999/xlink" width="96" zoomAndPan="magnify" viewBox="0 0 72 72" height="96" preserveAspectRatio="xMidYMid meet" version="1.0"><defs><clipPath id="b14684a22c"><path d="M 36 0 C 16.117188 0 0 16.117188 0 36 C 0 55.882812 16.117188 72 36 72 C 55.882812 72 72 55.882812 72 36 C 72 16.117188 55.882812 0 36 0 Z M 36 0 " clip-rule="nonzero"/></clipPath><clipPath id="830b1b6a21"><path d="M 11.535156 9.832031 L 50 9.832031 L 50 26 L 11.535156 26 Z M 11.535156 9.832031 " clip-rule="nonzero"/></clipPath><clipPath id="ca5945bb4d"><path d="M 11.535156 9.832031 L 60.285156 9.832031 L 60.285156 58.582031 L 11.535156 58.582031 Z M 11.535156 9.832031 " clip-rule="nonzero"/></clipPath></defs><g clip-path="url(#b14684a22c)"><rect x="-7.2" width="86.4" fill="#d8d5d5" y="-7.2" height="86.4" fill-opacity="1"/></g><g clip-path="url(#830b1b6a21)"><path fill="#000000" d="M 13.820312 25.828125 L 47.335938 25.828125 C 47.640625 25.828125 47.929688 25.769531 48.210938 25.652344 C 48.488281 25.539062 48.738281 25.371094 48.953125 25.160156 C 49.164062 24.945312 49.332031 24.695312 49.445312 24.417969 C 49.5625 24.136719 49.621094 23.847656 49.621094 23.542969 L 49.621094 16.6875 C 49.621094 16.476562 49.546875 16.296875 49.398438 16.148438 C 49.25 16 49.070312 15.925781 48.859375 15.925781 C 48.648438 15.925781 48.46875 16 48.320312 16.148438 C 48.171875 16.296875 48.097656 16.476562 48.097656 16.6875 L 48.097656 20.117188 L 43.527344 20.117188 L 43.527344 16.6875 C 43.527344 16.476562 43.453125 16.296875 43.304688 16.148438 C 43.15625 16 42.976562 15.925781 42.765625 15.925781 C 42.554688 15.925781 42.375 16 42.226562 16.148438 C 42.078125 16.296875 42.003906 16.476562 42.003906 16.6875 L 42.003906 20.117188 L 37.433594 20.117188 L 37.433594 16.6875 C 37.433594 16.476562 37.359375 16.296875 37.210938 16.148438 C 37.0625 16 36.882812 15.925781 36.671875 15.925781 C 36.460938 15.925781 36.28125 16 36.132812 16.148438 C 35.984375 16.296875 35.910156 16.476562 35.910156 16.6875 L 35.910156 20.117188 L 31.339844 20.117188 L 31.339844 16.6875 C 31.339844 16.476562 31.265625 16.296875 31.117188 16.148438 C 30.96875 16 30.789062 15.925781 30.578125 15.925781 C 30.367188 15.925781 30.1875 16 30.039062 16.148438 C 29.890625 16.296875 29.816406 16.476562 29.816406 16.6875 L 29.816406 20.117188 L 25.246094 20.117188 L 25.246094 16.6875 C 25.246094 16.476562 25.171875 16.296875 25.023438 16.148438 C 24.875 16 24.695312 15.925781 24.484375 15.925781 C 24.273438 15.925781 24.09375 16 23.945312 16.148438 C 23.796875 16.296875 23.722656 16.476562 23.722656 16.6875 L 23.722656 20.117188 L 19.152344 20.117188 L 19.152344 16.6875 C 19.152344 16.476562 19.078125 16.296875 18.929688 16.148438 C 18.78125 16 18.601562 15.925781 18.390625 15.925781 C 18.179688 15.925781 18 16 17.851562 16.148438 C 17.703125 16.296875 17.628906 16.476562 17.628906 16.6875 L 17.628906 20.117188 L 13.058594 20.117188 L 13.058594 10.59375 C 13.058594 10.382812 12.984375 10.203125 12.835938 10.054688 C 12.6875 9.90625 12.507812 9.832031 12.296875 9.832031 C 12.085938 9.832031 11.90625 9.90625 11.757812 10.054688 C 11.609375 10.203125 11.535156 10.382812 11.535156 10.59375 L 11.535156 23.542969 C 11.535156 23.847656 11.59375 24.136719 11.710938 24.417969 C 11.828125 24.695312 11.992188 24.945312 12.207031 25.160156 C 12.417969 25.371094 12.667969 25.539062 12.945312 25.652344 C 13.226562 25.769531 13.519531 25.828125 13.820312 25.828125 Z M 43.527344 21.640625 L 48.097656 21.640625 L 48.097656 23.542969 C 48.097656 23.753906 48.023438 23.933594 47.875 24.082031 C 47.726562 24.230469 47.546875 24.304688 47.335938 24.304688 L 43.527344 24.304688 Z M 37.433594 21.640625 L 42.003906 21.640625 L 42.003906 24.304688 L 37.433594 24.304688 Z M 31.339844 21.640625 L 35.910156 21.640625 L 35.910156 24.304688 L 31.339844 24.304688 Z M 25.246094 21.640625 L 29.816406 21.640625 L 29.816406 24.304688 L 25.246094 24.304688 Z M 19.152344 21.640625 L 23.722656 21.640625 L 23.722656 24.304688 L 19.152344 24.304688 Z M 13.058594 21.640625 L 17.628906 21.640625 L 17.628906 24.304688 L 13.820312 24.304688 C 13.609375 24.304688 13.429688 24.230469 13.28125 24.082031 C 13.132812 23.933594 13.058594 23.753906 13.058594 23.542969 Z M 13.058594 21.640625 " fill-opacity="1" fill-rule="nonzero"/></g><g clip-path="url(#ca5945bb4d)"><path fill="#000000" d="M 59.523438 9.832031 C 59.3125 9.832031 59.132812 9.90625 58.984375 10.054688 C 58.835938 10.203125 58.761719 10.382812 58.761719 10.59375 L 58.761719 32.191406 L 48.597656 32.191406 C 48.386719 32.191406 48.207031 32.265625 48.058594 32.414062 C 47.910156 32.5625 47.835938 32.742188 47.835938 32.953125 L 47.835938 38.4375 L 36.164062 38.4375 C 35.953125 38.4375 35.773438 38.511719 35.625 38.660156 C 35.476562 38.808594 35.402344 38.988281 35.402344 39.199219 L 35.402344 44.71875 L 23.875 44.71875 C 23.664062 44.71875 23.484375 44.792969 23.335938 44.941406 C 23.1875 45.089844 23.113281 45.269531 23.113281 45.480469 L 23.113281 50.835938 L 13.058594 50.835938 C 12.855469 50.835938 12.664062 50.875 12.476562 50.953125 C 12.289062 51.03125 12.125 51.140625 11.980469 51.285156 C 11.839844 51.425781 11.730469 51.589844 11.652344 51.777344 C 11.574219 51.964844 11.535156 52.160156 11.535156 52.359375 L 11.535156 57.058594 C 11.535156 57.261719 11.574219 57.453125 11.652344 57.640625 C 11.730469 57.828125 11.839844 57.992188 11.980469 58.136719 C 12.125 58.277344 12.289062 58.386719 12.476562 58.464844 C 12.664062 58.542969 12.855469 58.582031 13.058594 58.582031 L 59.523438 58.582031 C 59.734375 58.582031 59.914062 58.507812 60.0625 58.359375 C 60.210938 58.210938 60.285156 58.03125 60.285156 57.820312 L 60.285156 10.59375 C 60.285156 10.382812 60.210938 10.203125 60.0625 10.054688 C 59.914062 9.90625 59.734375 9.832031 59.523438 9.832031 Z M 59.523438 9.832031 " fill-opacity="1" fill-rule="nonzero"/></g><path fill="#000000" d="M 51.90625 18.972656 C 51.90625 19.183594 51.980469 19.363281 52.128906 19.511719 C 52.277344 19.660156 52.457031 19.734375 52.667969 19.734375 L 55.714844 19.734375 C 55.925781 19.734375 56.105469 19.660156 56.253906 19.511719 C 56.402344 19.363281 56.476562 19.183594 56.476562 18.972656 C 56.476562 18.761719 56.402344 18.582031 56.253906 18.433594 C 56.105469 18.285156 55.925781 18.210938 55.714844 18.210938 L 52.667969 18.210938 C 52.457031 18.210938 52.277344 18.285156 52.128906 18.433594 C 51.980469 18.582031 51.90625 18.761719 51.90625 18.972656 Z M 51.90625 18.972656 " fill-opacity="1" fill-rule="nonzero"/><path fill="#000000" d="M 55.714844 21.257812 L 52.667969 21.257812 C 52.457031 21.257812 52.277344 21.332031 52.128906 21.480469 C 51.980469 21.628906 51.90625 21.808594 51.90625 22.019531 C 51.90625 22.230469 51.980469 22.410156 52.128906 22.558594 C 52.277344 22.707031 52.457031 22.78125 52.667969 22.78125 L 55.714844 22.78125 C 55.925781 22.78125 56.105469 22.707031 56.253906 22.558594 C 56.402344 22.410156 56.476562 22.230469 56.476562 22.019531 C 56.476562 21.808594 56.402344 21.628906 56.253906 21.480469 C 56.105469 21.332031 55.925781 21.257812 55.714844 21.257812 Z M 55.714844 21.257812 " fill-opacity="1" fill-rule="nonzero"/></svg>