<svg xmlns="http://www.w3.org/2000/svg" xmlns:xlink="http://www.w3.org/1999/xlink" width="96" zoomAndPan="magnify" viewBox="0 0 72 72" height="96" preserveAspectRatio="xMidYMid meet" version="1.0"><defs><clipPath id="c98595d4ad"><path d="M 36 0 C 16.117188 0 0 16.117188 0 36 C 0 55.882812 16.117188 72 36 72 C 55.882812 72 72 55.882812 72 36 C 72 16.117188 55.882812 0 36 0 Z M 36 0 " clip-rule="nonzero"/></clipPath><clipPath id="2ec8fca96e"><path d="M 47 5.800781 L 55.199219 5.800781 L 55.199219 60.550781 L 47 60.550781 Z M 47 5.800781 " clip-rule="nonzero"/></clipPath><clipPath id="c8c46ea456"><path d="M 7.199219 26 L 36 26 L 36 60.550781 L 7.199219 60.550781 Z M 7.199219 26 " clip-rule="nonzero"/></clipPath></defs><g clip-path="url(#c98595d4ad)"><rect x="-7.2" width="86.4" fill="#d8d5d5" y="-7.2" height="86.4" fill-opacity="1"/></g><g clip-path="url(#2ec8fca96e)"><path fill="#000000" d="M 49.296875 29.632812 C 49.589844 30.8125 48.871094 32.015625 47.695312 32.308594 C 47.664062 32.316406 47.632812 32.324219 47.601562 32.332031 L 47.601562 60.46875 L 55.195312 60.46875 L 55.195312 5.878906 L 47.601562 5.878906 L 47.601562 28.007812 C 48.417969 28.175781 49.085938 28.796875 49.296875 29.632812 Z M 49.296875 29.632812 " fill-opacity="1" fill-rule="nonzero"/></g><path fill="#000000" d="M 41.871094 19.433594 C 42.160156 19.582031 42.429688 19.757812 42.6875 19.960938 C 42.941406 20.164062 43.171875 20.390625 43.382812 20.640625 C 43.59375 20.886719 43.777344 21.15625 43.933594 21.441406 C 44.089844 21.726562 44.21875 22.023438 44.320312 22.332031 C 44.417969 22.644531 44.484375 22.960938 44.523438 23.285156 C 44.558594 23.609375 44.5625 23.933594 44.535156 24.257812 C 44.507812 24.582031 44.453125 24.898438 44.363281 25.214844 C 44.273438 25.527344 44.152344 25.828125 44.003906 26.117188 C 43.855469 26.40625 43.679688 26.679688 43.476562 26.933594 C 43.273438 27.1875 43.050781 27.421875 42.800781 27.632812 C 42.554688 27.84375 42.285156 28.027344 42.003906 28.183594 C 41.71875 28.34375 41.421875 28.472656 41.109375 28.570312 C 40.800781 28.667969 40.484375 28.738281 40.164062 28.773438 C 39.839844 28.8125 39.515625 28.816406 39.191406 28.789062 C 38.867188 28.761719 38.550781 28.703125 38.238281 28.613281 C 37.925781 28.523438 37.625 28.402344 37.335938 28.253906 C 37.046875 28.105469 36.773438 27.929688 36.519531 27.726562 C 36.265625 27.523438 36.035156 27.296875 35.824219 27.050781 C 35.613281 26.800781 35.429688 26.535156 35.273438 26.25 C 35.113281 25.964844 34.984375 25.664062 34.886719 25.355469 C 34.789062 25.046875 34.71875 24.726562 34.683594 24.40625 C 34.648438 24.082031 34.640625 23.757812 34.667969 23.433594 C 34.695312 23.105469 34.753906 22.789062 34.84375 22.476562 C 34.933594 22.160156 35.054688 21.859375 35.203125 21.570312 C 35.351562 21.28125 35.527344 21.007812 35.730469 20.753906 C 35.929688 20.5 36.15625 20.265625 36.40625 20.054688 C 36.652344 19.84375 36.917969 19.660156 37.203125 19.503906 C 37.488281 19.34375 37.785156 19.21875 38.09375 19.117188 C 38.40625 19.019531 38.71875 18.949219 39.042969 18.914062 C 39.367188 18.878906 39.691406 18.871094 40.015625 18.898438 C 40.339844 18.925781 40.65625 18.984375 40.96875 19.074219 C 41.28125 19.164062 41.582031 19.285156 41.871094 19.433594 Z M 41.871094 19.433594 " fill-opacity="1" fill-rule="nonzero"/><g clip-path="url(#c8c46ea456)"><path fill="#000000" d="M 8.210938 59.214844 C 9.226562 60.347656 10.964844 60.445312 12.097656 59.425781 L 12.09375 59.425781 C 18.34375 53.808594 22.226562 48.332031 24.269531 44.992188 L 28.203125 48.667969 L 23.644531 56.199219 C 22.855469 57.503906 23.269531 59.199219 24.566406 59.988281 C 25.011719 60.257812 25.507812 60.390625 25.992188 60.390625 C 26.921875 60.390625 27.828125 59.917969 28.347656 59.0625 L 34.070312 49.613281 C 34.746094 48.496094 34.546875 47.058594 33.59375 46.164062 L 27.75 40.703125 C 29.386719 37.753906 31.976562 35.058594 33.769531 33.039062 C 33.878906 32.933594 33.984375 32.824219 34.085938 32.710938 C 32.167969 32.378906 30.886719 31.984375 30.507812 31.859375 C 29.933594 31.664062 29.480469 31.269531 29.222656 30.738281 C 28.960938 30.210938 28.921875 29.613281 29.109375 29.054688 C 29.414062 28.160156 30.253906 27.558594 31.195312 27.558594 C 31.4375 27.558594 31.675781 27.597656 31.902344 27.675781 C 31.941406 27.6875 31.96875 27.699219 32.011719 27.710938 C 32.105469 27.738281 32.25 27.78125 32.4375 27.835938 C 32.792969 27.933594 33.375 28.082031 34.121094 28.230469 C 34.457031 28.296875 34.847656 28.371094 35.28125 28.4375 C 35.160156 28.058594 34.964844 27.710938 34.671875 27.425781 C 33.296875 26.0625 30.429688 25.554688 27.835938 27.769531 C 24.289062 30.835938 22.539062 33.164062 20.539062 37.671875 C 20.078125 38.96875 20.070312 39.996094 20.332031 40.828125 C 18.863281 43.4375 15.132812 49.296875 8.421875 55.320312 C 7.292969 56.335938 7.195312 58.082031 8.210938 59.214844 Z M 8.210938 59.214844 " fill-opacity="1" fill-rule="nonzero"/></g><path fill="#000000" d="M 32.320312 28.257812 C 32.125 28.207031 31.976562 28.160156 31.882812 28.132812 C 31.835938 28.117188 31.800781 28.105469 31.78125 28.101562 C 31.761719 28.09375 31.761719 28.09375 31.761719 28.09375 C 30.839844 27.78125 29.839844 28.273438 29.527344 29.199219 C 29.214844 30.121094 29.707031 31.121094 30.628906 31.433594 C 30.699219 31.457031 32.113281 31.9375 34.402344 32.316406 C 35.9375 32.574219 37.863281 32.785156 40.046875 32.785156 C 42.335938 32.785156 44.90625 32.550781 47.585938 31.882812 C 47.59375 31.878906 47.597656 31.878906 47.601562 31.875 C 48.535156 31.632812 49.101562 30.679688 48.867188 29.742188 C 48.707031 29.09375 48.207031 28.617188 47.601562 28.460938 C 47.328125 28.386719 47.027344 28.382812 46.734375 28.457031 C 44.378906 29.046875 42.097656 29.257812 40.046875 29.257812 C 38.28125 29.257812 36.695312 29.101562 35.390625 28.902344 C 34.894531 28.824219 34.441406 28.746094 34.035156 28.664062 C 33.292969 28.515625 32.710938 28.367188 32.320312 28.257812 Z M 32.320312 28.257812 " fill-opacity="1" fill-rule="nonzero"/></svg>