<svg xmlns="http://www.w3.org/2000/svg" xmlns:xlink="http://www.w3.org/1999/xlink" width="96" zoomAndPan="magnify" viewBox="0 0 72 72" height="96" preserveAspectRatio="xMidYMid meet" version="1.0"><defs><clipPath id="dc39bd2cf0"><path d="M 36 0 C 16.117188 0 0 16.117188 0 36 C 0 55.882812 16.117188 72 36 72 C 55.882812 72 72 55.882812 72 36 C 72 16.117188 55.882812 0 36 0 Z M 36 0 " clip-rule="nonzero"/></clipPath><clipPath id="f7e54912cb"><path d="M 39 41 L 62.75 41 L 62.75 46 L 39 46 Z M 39 41 " clip-rule="nonzero"/></clipPath><clipPath id="ed0928bc4d"><path d="M 42 42 L 62.75 42 L 62.75 52 L 42 52 Z M 42 42 " clip-rule="nonzero"/></clipPath><clipPath id="b6ee74be8b"><path d="M 9.5 48 L 12 48 L 12 55.957031 L 9.5 55.957031 Z M 9.5 48 " clip-rule="nonzero"/></clipPath><clipPath id="182ecf0ce4"><path d="M 9.5 46 L 22 46 L 22 50 L 9.5 50 Z M 9.5 46 " clip-rule="nonzero"/></clipPath><clipPath id="9109be5d90"><path d="M 11 48 L 22 48 L 22 55.957031 L 11 55.957031 Z M 11 48 " clip-rule="nonzero"/></clipPath><clipPath id="25d296779e"><path d="M 49 33 L 62.75 33 L 62.75 37 L 49 37 Z M 49 33 " clip-rule="nonzero"/></clipPath><clipPath id="c80b93bb18"><path d="M 51 35 L 62.75 35 L 62.75 43 L 51 43 Z M 51 35 " clip-rule="nonzero"/></clipPath><clipPath id="8da39caa1d"><path d="M 9.5 40 L 12 40 L 12 49 L 9.5 49 Z M 9.5 40 " clip-rule="nonzero"/></clipPath><clipPath id="c694dea50c"><path d="M 9.5 38 L 32 38 L 32 43 L 9.5 43 Z M 9.5 38 " clip-rule="nonzero"/></clipPath><clipPath id="0d9ab58692"><path d="M 44 26 L 62.75 26 L 62.75 30 L 44 30 Z M 44 26 " clip-rule="nonzero"/></clipPath><clipPath id="54a3c57fee"><path d="M 46 27 L 62.75 27 L 62.75 36 L 46 36 Z M 46 27 " clip-rule="nonzero"/></clipPath><clipPath id="dc134d360c"><path d="M 9.5 33 L 12 33 L 12 41 L 9.5 41 Z M 9.5 33 " clip-rule="nonzero"/></clipPath><clipPath id="2abfc8ee95"><path d="M 9.5 32 L 21 32 L 21 35 L 9.5 35 Z M 9.5 32 " clip-rule="nonzero"/></clipPath><clipPath id="70577e24cf"><path d="M 51 18 L 62.75 18 L 62.75 21 L 51 21 Z M 51 18 " clip-rule="nonzero"/></clipPath><clipPath id="71f6d3b7c1"><path d="M 54 19 L 62.75 19 L 62.75 27 L 54 27 Z M 54 19 " clip-rule="nonzero"/></clipPath><clipPath id="eb4d81f560"><path d="M 9.5 25 L 12 25 L 12 33 L 9.5 33 Z M 9.5 25 " clip-rule="nonzero"/></clipPath><clipPath id="0c88acd219"><path d="M 9.5 22 L 32 22 L 32 27 L 9.5 27 Z M 9.5 22 " clip-rule="nonzero"/></clipPath><clipPath id="ddbe74dd97"><path d="M 47 10.957031 L 62.75 10.957031 L 62.75 15 L 47 15 Z M 47 10.957031 " clip-rule="nonzero"/></clipPath><clipPath id="d50a5eaaed"><path d="M 49 12 L 62.75 12 L 62.75 21 L 49 21 Z M 49 12 " clip-rule="nonzero"/></clipPath><clipPath id="603590f32b"><path d="M 9.5 18 L 12 18 L 12 26 L 9.5 26 Z M 9.5 18 " clip-rule="nonzero"/></clipPath><clipPath id="34c1ca264b"><path d="M 9.5 16 L 25 16 L 25 20 L 9.5 20 Z M 9.5 16 " clip-rule="nonzero"/></clipPath></defs><g clip-path="url(#dc39bd2cf0)"><rect x="-7.2" width="86.4" fill="#d8d5d5" y="-7.2" height="86.4" fill-opacity="1"/></g><path fill="#ffffff" d="M 42.117188 51.484375 L 39.78125 50.210938 L 39.789062 44.113281 L 42.125 45.382812 Z M 42.117188 51.484375 " fill-opacity="1" fill-rule="nonzero"/><g clip-path="url(#f7e54912cb)"><path fill="#ffffff" d="M 42.125 45.382812 L 39.789062 44.113281 L 60.058594 41.261719 L 62.394531 42.535156 Z M 42.125 45.382812 " fill-opacity="1" fill-rule="nonzero"/></g><g clip-path="url(#ed0928bc4d)"><path fill="#000000" d="M 62.394531 42.535156 L 62.382812 48.632812 L 42.117188 51.484375 L 42.125 45.382812 Z M 62.394531 42.535156 " fill-opacity="1" fill-rule="nonzero"/></g><path fill="#ffffff" d="M 23.089844 54.15625 L 20.753906 52.886719 L 20.765625 46.785156 L 23.101562 48.054688 Z M 23.089844 54.15625 " fill-opacity="1" fill-rule="nonzero"/><path fill="#ffffff" d="M 23.101562 48.054688 L 20.765625 46.785156 L 38.773438 44.253906 L 41.105469 45.527344 Z M 23.101562 48.054688 " fill-opacity="1" fill-rule="nonzero"/><path fill="#000000" d="M 41.105469 45.527344 L 41.097656 51.625 L 23.089844 54.15625 L 23.101562 48.054688 Z M 41.105469 45.527344 " fill-opacity="1" fill-rule="nonzero"/><g clip-path="url(#b6ee74be8b)"><path fill="#ffffff" d="M 11.875 55.734375 L 9.539062 54.460938 L 9.550781 48.363281 L 11.886719 49.632812 Z M 11.875 55.734375 " fill-opacity="1" fill-rule="nonzero"/></g><g clip-path="url(#182ecf0ce4)"><path fill="#ffffff" d="M 11.886719 49.632812 L 9.550781 48.363281 L 19.527344 46.960938 L 21.863281 48.230469 Z M 11.886719 49.632812 " fill-opacity="1" fill-rule="nonzero"/></g><g clip-path="url(#9109be5d90)"><path fill="#000000" d="M 21.863281 48.230469 L 21.855469 54.328125 L 11.875 55.734375 L 11.886719 49.632812 Z M 21.863281 48.230469 " fill-opacity="1" fill-rule="nonzero"/></g><path fill="#ffffff" d="M 51.625 42.714844 L 49.289062 41.445312 L 49.300781 35.34375 L 51.636719 36.613281 Z M 51.625 42.714844 " fill-opacity="1" fill-rule="nonzero"/><g clip-path="url(#25d296779e)"><path fill="#ffffff" d="M 51.636719 36.613281 L 49.300781 35.34375 L 60.074219 33.828125 L 62.410156 35.097656 Z M 51.636719 36.613281 " fill-opacity="1" fill-rule="nonzero"/></g><g clip-path="url(#c80b93bb18)"><path fill="#000000" d="M 62.410156 35.097656 L 62.398438 41.199219 L 51.625 42.714844 L 51.636719 36.613281 Z M 62.410156 35.097656 " fill-opacity="1" fill-rule="nonzero"/></g><path fill="#ffffff" d="M 33.082031 45.320312 L 30.746094 44.046875 L 30.757812 37.949219 L 33.09375 39.21875 Z M 33.082031 45.320312 " fill-opacity="1" fill-rule="nonzero"/><path fill="#ffffff" d="M 33.09375 39.21875 L 30.757812 37.949219 L 48.066406 35.515625 L 50.398438 36.789062 Z M 33.09375 39.21875 " fill-opacity="1" fill-rule="nonzero"/><path fill="#000000" d="M 50.398438 36.789062 L 50.390625 42.886719 L 33.082031 45.320312 L 33.09375 39.21875 Z M 50.398438 36.789062 " fill-opacity="1" fill-rule="nonzero"/><g clip-path="url(#8da39caa1d)"><path fill="#ffffff" d="M 11.886719 48.296875 L 9.550781 47.027344 L 9.566406 40.925781 L 11.902344 42.199219 Z M 11.886719 48.296875 " fill-opacity="1" fill-rule="nonzero"/></g><g clip-path="url(#c694dea50c)"><path fill="#ffffff" d="M 11.902344 42.199219 L 9.566406 40.925781 L 29.519531 38.125 L 31.855469 39.394531 Z M 11.902344 42.199219 " fill-opacity="1" fill-rule="nonzero"/></g><path fill="#000000" d="M 31.855469 39.394531 L 31.847656 45.492188 L 11.886719 48.296875 L 11.902344 42.199219 Z M 31.855469 39.394531 " fill-opacity="1" fill-rule="nonzero"/><path fill="#ffffff" d="M 46.738281 35.835938 L 44.402344 34.566406 L 44.414062 28.464844 L 46.75 29.738281 Z M 46.738281 35.835938 " fill-opacity="1" fill-rule="nonzero"/><g clip-path="url(#0d9ab58692)"><path fill="#ffffff" d="M 46.75 29.738281 L 44.414062 28.464844 L 60.089844 26.261719 L 62.421875 27.535156 Z M 46.75 29.738281 " fill-opacity="1" fill-rule="nonzero"/></g><g clip-path="url(#54a3c57fee)"><path fill="#000000" d="M 62.421875 27.535156 L 62.410156 33.632812 L 46.738281 35.835938 L 46.75 29.738281 Z M 62.421875 27.535156 " fill-opacity="1" fill-rule="nonzero"/></g><path fill="#ffffff" d="M 38.039062 37.058594 L 35.703125 35.789062 L 35.71875 29.691406 L 38.050781 30.960938 Z M 38.039062 37.058594 " fill-opacity="1" fill-rule="nonzero"/><path fill="#ffffff" d="M 38.050781 30.960938 L 35.71875 29.691406 L 43.089844 28.652344 L 45.425781 29.921875 Z M 38.050781 30.960938 " fill-opacity="1" fill-rule="nonzero"/><path fill="#000000" d="M 45.425781 29.921875 L 45.414062 36.023438 L 38.039062 37.058594 L 38.050781 30.960938 Z M 45.425781 29.921875 " fill-opacity="1" fill-rule="nonzero"/><path fill="#ffffff" d="M 21.878906 39.332031 L 19.546875 38.0625 L 19.558594 31.960938 L 21.894531 33.230469 Z M 21.878906 39.332031 " fill-opacity="1" fill-rule="nonzero"/><path fill="#ffffff" d="M 21.894531 33.230469 L 19.558594 31.960938 L 34.304688 29.886719 L 36.640625 31.160156 Z M 21.894531 33.230469 " fill-opacity="1" fill-rule="nonzero"/><path fill="#000000" d="M 36.640625 31.160156 L 36.625 37.257812 L 21.878906 39.332031 L 21.894531 33.230469 Z M 36.640625 31.160156 " fill-opacity="1" fill-rule="nonzero"/><g clip-path="url(#dc134d360c)"><path fill="#ffffff" d="M 11.902344 40.734375 L 9.566406 39.460938 L 9.578125 33.363281 L 11.914062 34.632812 Z M 11.902344 40.734375 " fill-opacity="1" fill-rule="nonzero"/></g><g clip-path="url(#2abfc8ee95)"><path fill="#ffffff" d="M 11.914062 34.632812 L 9.578125 33.363281 L 18.234375 32.148438 L 20.566406 33.417969 Z M 11.914062 34.632812 " fill-opacity="1" fill-rule="nonzero"/></g><path fill="#000000" d="M 20.566406 33.417969 L 20.558594 39.515625 L 11.902344 40.734375 L 11.914062 34.632812 Z M 20.566406 33.417969 " fill-opacity="1" fill-rule="nonzero"/><path fill="#ffffff" d="M 54.128906 26.925781 L 51.789062 25.65625 L 51.800781 19.554688 L 54.136719 20.828125 Z M 54.128906 26.925781 " fill-opacity="1" fill-rule="nonzero"/><g clip-path="url(#70577e24cf)"><path fill="#ffffff" d="M 54.136719 20.828125 L 51.800781 19.554688 L 60.101562 18.390625 L 62.4375 19.660156 Z M 54.136719 20.828125 " fill-opacity="1" fill-rule="nonzero"/></g><g clip-path="url(#71f6d3b7c1)"><path fill="#000000" d="M 62.4375 19.660156 L 62.425781 25.757812 L 54.128906 26.925781 L 54.136719 20.828125 Z M 62.4375 19.660156 " fill-opacity="1" fill-rule="nonzero"/></g><path fill="#ffffff" d="M 33.109375 29.878906 L 30.773438 28.609375 L 30.785156 22.507812 L 33.121094 23.78125 Z M 33.109375 29.878906 " fill-opacity="1" fill-rule="nonzero"/><path fill="#ffffff" d="M 33.121094 23.78125 L 30.785156 22.507812 L 50.742188 19.707031 L 53.078125 20.976562 Z M 33.121094 23.78125 " fill-opacity="1" fill-rule="nonzero"/><path fill="#000000" d="M 53.078125 20.976562 L 53.066406 27.074219 L 33.109375 29.878906 L 33.121094 23.78125 Z M 53.078125 20.976562 " fill-opacity="1" fill-rule="nonzero"/><g clip-path="url(#eb4d81f560)"><path fill="#ffffff" d="M 11.917969 32.859375 L 9.582031 31.585938 L 9.59375 25.488281 L 11.929688 26.757812 Z M 11.917969 32.859375 " fill-opacity="1" fill-rule="nonzero"/></g><g clip-path="url(#0c88acd219)"><path fill="#ffffff" d="M 11.929688 26.757812 L 9.59375 25.488281 L 29.546875 22.683594 L 31.886719 23.953125 Z M 11.929688 26.757812 " fill-opacity="1" fill-rule="nonzero"/></g><path fill="#000000" d="M 31.886719 23.953125 L 31.875 30.054688 L 11.917969 32.859375 L 11.929688 26.757812 Z M 31.886719 23.953125 " fill-opacity="1" fill-rule="nonzero"/><path fill="#ffffff" d="M 49.726562 20.113281 L 47.390625 18.84375 L 47.402344 12.742188 L 49.734375 14.011719 Z M 49.726562 20.113281 " fill-opacity="1" fill-rule="nonzero"/><g clip-path="url(#ddbe74dd97)"><path fill="#ffffff" d="M 49.734375 14.011719 L 47.402344 12.742188 L 60.117188 10.957031 L 62.449219 12.226562 Z M 49.734375 14.011719 " fill-opacity="1" fill-rule="nonzero"/></g><g clip-path="url(#d50a5eaaed)"><path fill="#000000" d="M 62.449219 12.226562 L 62.441406 18.328125 L 49.726562 20.113281 L 49.734375 14.011719 Z M 62.449219 12.226562 " fill-opacity="1" fill-rule="nonzero"/></g><path fill="#ffffff" d="M 39.65625 21.527344 L 37.324219 20.257812 L 37.332031 14.160156 L 39.667969 15.429688 Z M 39.65625 21.527344 " fill-opacity="1" fill-rule="nonzero"/><path fill="#ffffff" d="M 39.667969 15.429688 L 37.332031 14.160156 L 45.988281 12.941406 L 48.324219 14.210938 Z M 39.667969 15.429688 " fill-opacity="1" fill-rule="nonzero"/><path fill="#000000" d="M 48.324219 14.210938 L 48.3125 20.3125 L 39.65625 21.527344 L 39.667969 15.429688 Z M 48.324219 14.210938 " fill-opacity="1" fill-rule="nonzero"/><path fill="#ffffff" d="M 25.707031 23.488281 L 23.371094 22.21875 L 23.382812 16.117188 L 25.71875 17.386719 Z M 25.707031 23.488281 " fill-opacity="1" fill-rule="nonzero"/><path fill="#ffffff" d="M 25.71875 17.386719 L 23.382812 16.117188 L 35.746094 14.382812 L 38.078125 15.648438 Z M 25.71875 17.386719 " fill-opacity="1" fill-rule="nonzero"/><path fill="#000000" d="M 38.078125 15.648438 L 38.070312 21.75 L 25.707031 23.488281 L 25.71875 17.386719 Z M 38.078125 15.648438 " fill-opacity="1" fill-rule="nonzero"/><g clip-path="url(#603590f32b)"><path fill="#ffffff" d="M 11.929688 25.425781 L 9.59375 24.15625 L 9.609375 18.054688 L 11.941406 19.324219 Z M 11.929688 25.425781 " fill-opacity="1" fill-rule="nonzero"/></g><g clip-path="url(#34c1ca264b)"><path fill="#ffffff" d="M 11.941406 19.324219 L 9.609375 18.054688 L 21.96875 16.316406 L 24.304688 17.585938 Z M 11.941406 19.324219 " fill-opacity="1" fill-rule="nonzero"/></g><path fill="#000000" d="M 24.304688 17.585938 L 24.292969 23.6875 L 11.929688 25.425781 L 11.941406 19.324219 Z M 24.304688 17.585938 " fill-opacity="1" fill-rule="nonzero"/></svg>