<svg xmlns="http://www.w3.org/2000/svg" xmlns:xlink="http://www.w3.org/1999/xlink" width="96" zoomAndPan="magnify" viewBox="0 0 72 72" height="96" preserveAspectRatio="xMidYMid meet" version="1.0"><defs><clipPath id="78ee160c05"><path d="M 36 0 C 16.117188 0 0 16.117188 0 36 C 0 55.882812 16.117188 72 36 72 C 55.882812 72 72 55.882812 72 36 C 72 16.117188 55.882812 0 36 0 Z M 36 0 " clip-rule="nonzero"/></clipPath><clipPath id="5ab21516c5"><path d="M 8 12 L 64.996094 12 L 64.996094 59.988281 L 8 59.988281 Z M 8 12 " clip-rule="nonzero"/></clipPath><clipPath id="dc0ef84829"><path d="M 8 11.988281 L 64.996094 11.988281 L 64.996094 59.988281 L 8 59.988281 Z M 8 11.988281 " clip-rule="nonzero"/></clipPath></defs><g clip-path="url(#78ee160c05)"><rect x="-7.2" width="86.4" fill="#d8d5d5" y="-7.2" height="86.4" fill-opacity="1"/></g><g clip-path="url(#5ab21516c5)"><path fill="#000000" d="M 64.625 19.667969 L 64.625 52.328125 L 64.5625 52.335938 L 14.167969 59.777344 L 14.167969 59.804688 L 14.109375 59.789062 L 14.015625 59.800781 L 14.015625 59.761719 L 8.160156 58.0625 L 8.160156 13.933594 L 14.015625 12.238281 L 14.015625 12.195312 L 14.109375 12.210938 L 14.167969 12.191406 L 14.167969 12.21875 L 35.605469 15.382812 Z M 64.625 19.667969 " fill-opacity="1" fill-rule="nonzero"/></g><g clip-path="url(#dc0ef84829)"><path fill="#ffffff" d="M 35.628906 15.238281 L 14.316406 12.089844 L 14.316406 11.988281 L 14.097656 12.054688 L 13.867188 12.019531 L 13.867188 12.125 L 8.011719 13.820312 L 8.011719 58.175781 L 13.867188 59.871094 L 13.867188 59.972656 L 14.101562 59.941406 L 14.316406 60.003906 L 14.316406 59.910156 L 64.582031 52.488281 L 64.773438 52.460938 L 64.773438 19.539062 Z M 60.625 19.230469 L 64.472656 19.800781 L 64.472656 20.824219 L 58.980469 20.070312 L 58.980469 18.988281 Z M 19.488281 58.84375 L 19.488281 57.726562 L 25.980469 56.820312 L 32.503906 55.910156 L 32.503906 56.921875 Z M 32.503906 15.078125 L 32.503906 16.441406 L 25.980469 15.546875 L 19.488281 14.65625 L 19.488281 13.15625 L 19.835938 13.207031 Z M 14.167969 48.445312 L 14.167969 43.675781 L 25.921875 43.121094 L 25.921875 47.527344 Z M 19.339844 48.203125 L 19.339844 52.8125 L 14.167969 53.375 L 14.167969 48.609375 Z M 25.921875 15.703125 L 25.921875 20.109375 L 14.167969 18.859375 L 14.167969 14.09375 Z M 14.167969 13.929688 L 14.167969 12.371094 L 19.339844 13.132812 L 19.339844 14.636719 Z M 45.667969 30.296875 L 45.667969 34.097656 L 39.144531 34.003906 L 32.652344 33.914062 L 32.652344 29.710938 L 39.144531 30.003906 Z M 39.234375 29.847656 L 39.234375 25.84375 L 52.246094 26.828125 L 52.246094 30.429688 Z M 45.667969 42.023438 L 39.144531 42.332031 L 32.652344 42.640625 L 32.652344 38.4375 L 39.144531 38.328125 L 45.667969 38.222656 Z M 52.25 41.871094 L 52.25 45.472656 L 39.234375 46.488281 L 39.234375 42.488281 Z M 32.503906 33.914062 L 25.980469 33.820312 L 19.488281 33.730469 L 19.488281 29.125 L 25.980469 29.414062 L 32.503906 29.707031 Z M 39.082031 34.167969 L 39.082031 38.171875 L 26.070312 38.386719 L 26.070312 33.980469 Z M 32.503906 38.441406 L 32.503906 42.648438 L 25.980469 42.957031 L 19.488281 43.261719 L 19.488281 38.65625 L 25.980469 38.550781 Z M 26.070312 43.113281 L 39.082031 42.496094 L 39.082031 46.5 L 26.070312 47.515625 Z M 39.234375 38.167969 L 39.234375 34.167969 L 52.246094 34.347656 L 52.246094 37.953125 Z M 39.082031 29.839844 L 26.070312 29.253906 L 26.070312 24.851562 L 39.082031 25.835938 Z M 32.503906 25.175781 L 25.980469 24.683594 L 19.488281 24.191406 L 19.488281 19.589844 L 25.980469 20.277344 L 32.503906 20.972656 Z M 19.339844 19.570312 L 19.339844 24.179688 L 14.167969 23.789062 L 14.167969 19.023438 Z M 25.921875 24.839844 L 25.921875 29.25 L 14.167969 28.71875 L 14.167969 23.953125 Z M 19.339844 29.113281 L 19.339844 33.726562 L 14.167969 33.652344 L 14.167969 28.882812 Z M 25.921875 33.980469 L 25.921875 38.390625 L 14.167969 38.585938 L 14.167969 33.816406 Z M 19.339844 38.660156 L 19.339844 43.269531 L 14.167969 43.515625 L 14.167969 38.746094 Z M 19.488281 48.191406 L 25.980469 47.683594 L 32.503906 47.175781 L 32.503906 51.382812 L 25.980469 52.09375 L 19.488281 52.796875 Z M 26.070312 52.242188 L 39.082031 50.828125 L 39.082031 54.832031 L 26.070312 56.644531 Z M 32.652344 51.363281 L 32.652344 47.164062 L 39.144531 46.65625 L 45.664062 46.148438 L 45.664062 49.953125 L 39.144531 50.660156 Z M 39.234375 50.8125 L 52.246094 49.394531 L 52.246094 52.996094 L 39.234375 54.8125 Z M 45.816406 54.054688 L 52.308594 53.148438 L 58.832031 52.238281 L 58.832031 53.035156 L 45.816406 54.957031 Z M 45.816406 49.933594 L 45.816406 46.136719 L 52.308594 45.628906 L 58.832031 45.121094 L 58.832031 48.519531 L 52.308594 49.230469 Z M 45.816406 42.015625 L 45.816406 38.21875 L 52.308594 38.109375 L 58.832031 38.003906 L 58.832031 41.402344 L 52.308594 41.710938 Z M 45.816406 34.101562 L 45.816406 30.300781 L 52.308594 30.59375 L 58.832031 30.886719 L 58.832031 34.285156 L 52.308594 34.191406 Z M 45.816406 26.183594 L 45.816406 22.382812 L 52.308594 23.074219 L 58.832031 23.769531 L 58.832031 27.167969 L 52.308594 26.671875 Z M 52.25 22.90625 L 39.234375 21.523438 L 39.234375 17.523438 L 52.25 19.308594 Z M 45.667969 22.371094 L 45.667969 26.171875 L 39.144531 25.679688 L 32.652344 25.1875 L 32.652344 20.988281 L 39.144531 21.679688 Z M 39.082031 21.507812 L 26.070312 20.125 L 26.070312 15.722656 L 39.082031 17.503906 Z M 14.167969 53.539062 L 25.921875 52.257812 L 25.921875 56.664062 L 14.167969 58.304688 Z M 32.652344 56.898438 L 32.652344 55.890625 L 39.144531 54.984375 L 45.664062 54.074219 L 45.664062 54.976562 L 42.226562 55.484375 Z M 58.980469 53.011719 L 58.980469 52.21875 L 64.472656 51.449219 L 64.472656 52.199219 Z M 52.398438 52.976562 L 52.398438 49.378906 L 64.472656 48.066406 L 64.472656 51.289062 Z M 58.980469 48.503906 L 58.980469 45.109375 L 64.472656 44.679688 L 64.472656 47.902344 Z M 52.398438 45.464844 L 52.398438 41.867188 L 64.472656 41.292969 L 64.472656 44.519531 Z M 58.980469 41.394531 L 58.980469 38 L 64.472656 37.910156 L 64.472656 41.136719 Z M 52.398438 37.949219 L 52.398438 34.351562 L 64.472656 34.523438 L 64.472656 37.75 Z M 58.980469 34.285156 L 58.980469 30.890625 L 64.472656 31.136719 L 64.472656 34.363281 Z M 52.398438 30.4375 L 52.398438 26.839844 L 64.472656 27.753906 L 64.472656 30.980469 Z M 58.980469 27.179688 L 58.980469 23.78125 L 64.472656 24.367188 L 64.472656 27.59375 Z M 52.398438 22.925781 L 52.398438 19.328125 L 64.472656 20.980469 L 64.472656 24.207031 Z M 58.832031 18.964844 L 58.832031 20.046875 L 52.308594 19.15625 L 45.816406 18.265625 L 45.816406 17.042969 Z M 45.667969 18.246094 L 39.144531 17.351562 L 32.652344 16.460938 L 32.652344 15.101562 L 35.582031 15.535156 L 45.667969 17.023438 Z M 8.3125 56.726562 L 8.3125 52.308594 L 14.015625 53.527344 L 14.015625 58.285156 Z M 14.015625 58.453125 L 14.015625 59.605469 L 12.832031 59.261719 L 12.832031 58.128906 Z M 12.683594 12.78125 L 12.683594 14.308594 L 8.3125 15.484375 L 8.3125 14.046875 Z M 8.3125 20.230469 L 12.683594 19.320312 L 12.683594 24.003906 L 8.3125 24.648438 Z M 8.3125 29.394531 L 12.683594 29.011719 L 12.683594 33.695312 L 8.3125 33.816406 Z M 8.3125 38.558594 L 12.683594 38.703125 L 12.683594 43.386719 L 8.3125 42.980469 Z M 8.3125 47.726562 L 12.683594 48.394531 L 12.683594 53.078125 L 8.3125 52.144531 Z M 8.3125 56.890625 L 12.683594 58.089844 L 12.683594 59.21875 L 8.3125 57.953125 Z M 12.832031 53.109375 L 12.832031 48.421875 L 14.015625 48.601562 L 14.015625 53.363281 Z M 8.3125 47.5625 L 8.3125 43.144531 L 14.015625 43.675781 L 14.015625 48.4375 Z M 12.832031 43.398438 L 12.832031 38.707031 L 14.015625 38.746094 L 14.015625 43.507812 Z M 8.3125 38.398438 L 8.3125 33.976562 L 14.015625 33.820312 L 14.015625 38.585938 Z M 12.832031 33.691406 L 12.832031 28.996094 L 14.015625 28.894531 L 14.015625 33.65625 Z M 8.3125 29.234375 L 8.3125 24.8125 L 14.015625 23.96875 L 14.015625 28.730469 Z M 12.832031 23.980469 L 12.832031 19.289062 L 14.015625 19.042969 L 14.015625 23.804688 Z M 8.3125 20.066406 L 8.3125 15.652344 L 14.015625 14.117188 L 14.015625 18.878906 Z M 12.832031 14.269531 L 12.832031 12.734375 L 14.015625 12.394531 L 14.015625 13.949219 Z M 14.167969 58.46875 L 19.339844 57.746094 L 19.339844 58.863281 L 14.167969 59.628906 Z M 14.167969 58.46875 " fill-opacity="1" fill-rule="nonzero"/></g></svg>