<svg xmlns="http://www.w3.org/2000/svg" xmlns:xlink="http://www.w3.org/1999/xlink" width="96" zoomAndPan="magnify" viewBox="0 0 72 72" height="96" preserveAspectRatio="xMidYMid meet" version="1.0"><defs><clipPath id="6fdb83c264"><path d="M 36 0 C 16.117188 0 0 16.117188 0 36 C 0 55.882812 16.117188 72 36 72 C 55.882812 72 72 55.882812 72 36 C 72 16.117188 55.882812 0 36 0 Z M 36 0 " clip-rule="nonzero"/></clipPath><clipPath id="a977d96f0e"><path d="M 8.492188 8.515625 L 63.242188 8.515625 L 63.242188 61 L 8.492188 61 Z M 8.492188 8.515625 " clip-rule="nonzero"/></clipPath></defs><rect x="-7.2" width="86.4" fill="#ffffff" y="-7.2" height="86.4" fill-opacity="1"/><rect x="-7.2" width="86.4" fill="#ffffff" y="-7.2" height="86.4" fill-opacity="1"/><g clip-path="url(#6fdb83c264)"><rect x="-7.2" width="86.4" fill="#d8d5d5" y="-7.2" height="86.4" fill-opacity="1"/></g><g clip-path="url(#a977d96f0e)"><path fill="#000000" d="M 63.207031 53.113281 C 63.011719 51.167969 62.1875 49.339844 61.675781 47.445312 C 61.671875 47.414062 61.65625 47.378906 61.652344 47.347656 C 60.664062 43.597656 60.929688 39.636719 60.175781 35.863281 C 60.457031 34.273438 60.214844 32.289062 59.4375 30.023438 C 58.179688 26.371094 55.652344 22.3125 52.328125 18.609375 C 49.003906 14.898438 45.261719 11.964844 41.785156 10.332031 C 38.050781 8.582031 34.996094 8.53125 33.175781 10.191406 L 21.929688 20.453125 C 20.808594 20.386719 19.734375 20.417969 18.753906 20.546875 C 15.882812 20.921875 14.003906 22.09375 13.480469 23.859375 C 13.144531 24.992188 13.40625 26.242188 14.222656 27.496094 C 14.453125 27.84375 14.71875 28.199219 15.03125 28.546875 C 15.179688 28.714844 15.339844 28.882812 15.511719 29.042969 C 15.683594 29.21875 15.867188 29.386719 16.066406 29.558594 C 18.082031 31.324219 20.988281 32.835938 24.246094 33.835938 C 26.578125 34.542969 28.898438 34.929688 31 34.96875 C 31.84375 34.988281 32.652344 34.941406 33.40625 34.847656 C 33.417969 34.847656 33.4375 34.839844 33.449219 34.839844 C 33.367188 34.195312 33.589844 33.519531 34.109375 33.054688 C 34.285156 32.894531 34.484375 32.765625 34.695312 32.683594 C 35.46875 32.359375 36.398438 32.539062 36.992188 33.203125 C 37.402344 33.660156 37.574219 34.246094 37.507812 34.8125 C 37.457031 35.296875 37.234375 35.761719 36.851562 36.109375 C 36.105469 36.796875 34.980469 36.8125 34.214844 36.199219 C 34.214844 36.199219 20.550781 37.460938 13.25 28.398438 L 10.566406 30.851562 C 8.746094 32.515625 8.492188 35.585938 9.84375 39.507812 C 11.101562 43.160156 13.628906 47.21875 16.953125 50.921875 C 20.277344 54.632812 24.019531 57.570312 27.496094 59.199219 C 31.230469 60.949219 34.285156 61.003906 36.105469 59.339844 L 52.226562 44.625 C 52.390625 45.472656 52.539062 46.332031 52.664062 47.195312 C 53.035156 49.730469 53.222656 52.328125 54.03125 54.761719 C 54.179688 55.191406 54.34375 55.625 54.613281 55.964844 C 54.878906 56.308594 55.257812 56.546875 55.609375 56.472656 C 56.21875 56.359375 56.445312 55.4375 56.394531 54.644531 C 56.304688 53.152344 55.660156 51.742188 55.167969 50.316406 C 54.84375 49.390625 54.582031 48.386719 54.582031 47.398438 C 54.582031 46.9375 54.585938 46.09375 54.957031 45.867188 C 55.714844 45.410156 56.710938 47.496094 56.980469 48.183594 C 57.402344 49.273438 57.617188 50.453125 57.777344 51.605469 C 58 53.234375 58.089844 54.882812 58.511719 56.472656 C 58.925781 58.066406 59.738281 59.648438 60.949219 60.421875 C 61.171875 60.5625 61.429688 60.679688 61.652344 60.589844 C 61.9375 60.472656 62.054688 60.0625 62.078125 59.675781 C 62.128906 58.894531 61.945312 58.089844 61.726562 57.316406 C 60.816406 54.089844 59.457031 51.058594 58.589844 47.804688 C 58.382812 47.03125 57.980469 46.296875 57.917969 45.492188 C 57.878906 44.972656 58 44.3125 58.402344 44.109375 C 58.875 43.863281 59.355469 44.515625 59.597656 45.003906 C 59.851562 45.519531 60.023438 46.128906 60.144531 46.703125 C 60.402344 47.914062 60.488281 49.152344 60.734375 50.367188 C 60.976562 51.585938 61.394531 52.824219 62.164062 53.691406 C 62.410156 53.976562 62.78125 54.226562 63.042969 54.019531 C 63.234375 53.839844 63.242188 53.453125 63.207031 53.113281 Z M 15.464844 26.359375 C 15.03125 25.617188 14.890625 24.929688 15.0625 24.34375 C 15.382812 23.265625 16.804688 22.492188 18.964844 22.210938 C 19.332031 22.160156 19.722656 22.125 20.117188 22.105469 Z M 46.550781 34.125 C 44.648438 32.703125 42.753906 30.957031 40.972656 28.964844 C 37.820312 25.441406 35.433594 21.625 34.253906 18.210938 C 33.1875 15.113281 33.257812 12.710938 34.453125 11.613281 C 35.644531 10.519531 38.019531 10.6875 40.972656 12.074219 C 44.222656 13.597656 47.75 16.375 50.90625 19.890625 C 54.058594 23.414062 56.445312 27.234375 57.625 30.648438 C 57.707031 30.878906 57.777344 31.105469 57.847656 31.328125 C 51.957031 30.105469 48.53125 32.921875 46.550781 34.125 Z M 46.550781 34.125 " fill-opacity="1" fill-rule="nonzero"/></g></svg>