<svg xmlns="http://www.w3.org/2000/svg" xmlns:xlink="http://www.w3.org/1999/xlink" width="96" zoomAndPan="magnify" viewBox="0 0 72 72" height="96" preserveAspectRatio="xMidYMid meet" version="1.0"><defs><clipPath id="06226ec2ff"><path d="M 36 0 C 16.117188 0 0 16.117188 0 36 C 0 55.882812 16.117188 72 36 72 C 55.882812 72 72 55.882812 72 36 C 72 16.117188 55.882812 0 36 0 Z M 36 0 " clip-rule="nonzero"/></clipPath><clipPath id="68956d792a"><path d="M 44 11.449219 L 61.199219 11.449219 L 61.199219 43 L 44 43 Z M 44 11.449219 " clip-rule="nonzero"/></clipPath><clipPath id="c84fae96b0"><path d="M 7.199219 16 L 44 16 L 44 55.699219 L 7.199219 55.699219 Z M 7.199219 16 " clip-rule="nonzero"/></clipPath></defs><rect x="-7.2" width="86.4" fill="#ffffff" y="-7.2" height="86.4" fill-opacity="1"/><rect x="-7.2" width="86.4" fill="#ffffff" y="-7.2" height="86.4" fill-opacity="1"/><g clip-path="url(#06226ec2ff)"><rect x="-7.2" width="86.4" fill="#d8d5d5" y="-7.2" height="86.4" fill-opacity="1"/></g><path fill="#000000" d="M 51.917969 26.796875 L 53.605469 26.796875 C 53.839844 26.796875 54.039062 26.882812 54.203125 27.046875 C 54.367188 27.214844 54.449219 27.414062 54.449219 27.648438 L 54.449219 44.644531 C 54.449219 44.878906 54.367188 45.078125 54.203125 45.242188 C 54.039062 45.410156 53.839844 45.492188 53.605469 45.492188 L 51.917969 45.492188 C 51.6875 45.492188 51.488281 45.410156 51.320312 45.242188 C 51.15625 45.078125 51.074219 44.878906 51.074219 44.644531 L 51.074219 27.648438 C 51.074219 27.414062 51.15625 27.214844 51.320312 27.046875 C 51.488281 26.882812 51.6875 26.796875 51.917969 26.796875 Z M 51.917969 26.796875 " fill-opacity="1" fill-rule="nonzero"/><g clip-path="url(#68956d792a)"><path fill="#000000" d="M 52.679688 11.503906 C 48.035156 11.550781 44.324219 15.429688 44.324219 20.109375 L 44.324219 40.394531 C 44.324219 41.800781 45.457031 42.941406 46.855469 42.941406 L 49.386719 42.941406 L 49.386719 27.648438 C 49.386719 26.242188 50.519531 25.097656 51.917969 25.097656 L 53.605469 25.097656 C 55.003906 25.097656 56.136719 26.242188 56.136719 27.648438 L 56.136719 42.941406 L 58.667969 42.941406 C 60.066406 42.941406 61.199219 41.800781 61.199219 40.394531 L 61.199219 20 C 61.199219 15.285156 57.371094 11.457031 52.679688 11.503906 Z M 52.679688 11.503906 " fill-opacity="1" fill-rule="nonzero"/></g><g clip-path="url(#c84fae96b0)"><path fill="#000000" d="M 18.320312 27.800781 C 14.832031 31.3125 12.097656 35.402344 10.183594 39.957031 C 8.203125 44.671875 7.199219 49.679688 7.199219 54.839844 C 7.199219 55.308594 7.578125 55.6875 8.042969 55.6875 L 17.324219 55.6875 L 17.324219 54.839844 C 17.324219 51.84375 17.792969 48.898438 18.710938 46.078125 C 18.859375 45.628906 19.335938 45.386719 19.777344 45.535156 C 20.21875 45.679688 20.460938 46.160156 20.316406 46.609375 C 19.453125 49.253906 19.011719 52.023438 19.011719 54.839844 L 19.011719 55.6875 L 22.386719 55.6875 L 22.386719 54.839844 C 22.386719 49.328125 24.355469 44 27.933594 39.835938 C 30.773438 36.527344 34.480469 34.117188 38.585938 32.871094 C 38.960938 32.757812 39.363281 32.917969 39.558594 33.261719 C 39.832031 33.738281 39.59375 34.339844 39.070312 34.5 C 30.347656 37.171875 24.074219 45.449219 24.074219 54.839844 L 24.074219 55.6875 L 28.292969 55.6875 C 28.761719 55.6875 29.136719 55.308594 29.136719 54.839844 C 29.136719 46.804688 34.996094 40.121094 42.636719 38.894531 L 42.636719 28.621094 C 34.128906 29.457031 26.484375 34.453125 22.28125 42.078125 C 22.128906 42.355469 21.839844 42.515625 21.542969 42.515625 C 21.40625 42.515625 21.265625 42.480469 21.136719 42.40625 C 20.726562 42.179688 20.582031 41.664062 20.808594 41.253906 C 25.308594 33.085938 33.519531 27.753906 42.640625 26.914062 L 42.640625 20.109375 C 42.640625 18.898438 42.847656 17.734375 43.230469 16.652344 C 38.789062 16.875 34.480469 17.867188 30.390625 19.605469 C 25.871094 21.53125 21.808594 24.289062 18.324219 27.800781 Z M 39.078125 23.175781 C 39.144531 23.621094 38.859375 24.039062 38.421875 24.132812 C 25.71875 26.949219 15.9375 37.53125 14.21875 50.703125 C 14.160156 51.128906 13.800781 51.441406 13.382812 51.441406 C 13.34375 51.441406 13.308594 51.4375 13.273438 51.433594 C 12.808594 51.371094 12.484375 50.945312 12.546875 50.480469 C 14.355469 36.597656 24.667969 25.445312 38.058594 22.476562 C 38.535156 22.371094 39.003906 22.691406 39.078125 23.175781 Z M 39.078125 23.175781 " fill-opacity="1" fill-rule="nonzero"/></g></svg>