<svg xmlns="http://www.w3.org/2000/svg" xmlns:xlink="http://www.w3.org/1999/xlink" width="96" zoomAndPan="magnify" viewBox="0 0 72 72" height="96" preserveAspectRatio="xMidYMid meet" version="1.0"><defs><clipPath id="534d396f57"><path d="M 36 0 C 16.117188 0 0 16.117188 0 36 C 0 55.882812 16.117188 72 36 72 C 55.882812 72 72 55.882812 72 36 C 72 16.117188 55.882812 0 36 0 Z M 36 0 " clip-rule="nonzero"/></clipPath><clipPath id="0f7fadc2c0"><path d="M 6 13.082031 L 64.460938 13.082031 L 64.460938 56.582031 L 6 56.582031 Z M 6 13.082031 " clip-rule="nonzero"/></clipPath><clipPath id="dd11a96d70"><path d="M 6 25 L 64.460938 25 L 64.460938 56.582031 L 6 56.582031 Z M 6 25 " clip-rule="nonzero"/></clipPath><clipPath id="5a169460ae"><path d="M 39 13.082031 L 59 13.082031 L 59 26 L 39 26 Z M 39 13.082031 " clip-rule="nonzero"/></clipPath></defs><g clip-path="url(#534d396f57)"><rect x="-7.2" width="86.4" fill="#d8d5d5" y="-7.2" height="86.4" fill-opacity="1"/></g><g clip-path="url(#0f7fadc2c0)"><path fill="#ffffff" d="M 64.800781 31.84375 C 64.417969 32.199219 64.117188 32.535156 63.757812 32.804688 C 62.859375 33.484375 61.953125 34.171875 61.015625 34.800781 C 51.5 41.167969 41.976562 47.53125 32.441406 53.871094 C 31.097656 54.765625 29.671875 55.53125 28.292969 56.375 C 27.894531 56.617188 27.527344 56.652344 27.074219 56.542969 C 20.371094 54.898438 13.996094 52.402344 7.960938 49.050781 C 7.46875 48.777344 7 48.449219 6.558594 48.097656 C 5.957031 47.613281 5.972656 47.195312 6.578125 46.726562 C 6.960938 46.433594 7.371094 46.167969 7.765625 45.890625 C 15.019531 40.890625 22.300781 35.929688 29.851562 31.382812 C 30.820312 30.800781 31.789062 30.214844 32.773438 29.65625 C 33.144531 29.449219 33.351562 29.199219 33.304688 28.765625 C 33.246094 28.238281 33.511719 27.933594 33.964844 27.683594 C 35.703125 26.714844 37.429688 25.722656 39.15625 24.742188 C 39.183594 24.636719 39.222656 24.5625 39.21875 24.488281 C 39.136719 23.507812 39.605469 22.839844 40.421875 22.378906 C 45.410156 19.546875 50.398438 16.714844 55.394531 13.894531 C 56.667969 13.175781 57.582031 13.3125 58.601562 14.304688 C 59.574219 15.25 59.515625 16.628906 58.460938 17.472656 C 58.230469 17.652344 57.964844 17.796875 57.707031 17.941406 C 53.902344 20.078125 50.09375 22.207031 46.289062 24.34375 C 46.058594 24.472656 45.835938 24.617188 45.4375 24.859375 C 45.910156 24.984375 46.226562 25.074219 46.546875 25.144531 C 52.082031 26.382812 57.402344 28.261719 62.597656 30.511719 C 63.328125 30.832031 64.085938 31.136719 64.800781 31.84375 Z M 64.800781 31.84375 " fill-opacity="1" fill-rule="nonzero"/></g><g clip-path="url(#dd11a96d70)"><path fill="#000000" d="M 64.003906 31.84375 C 62.976562 32.589844 62.0625 33.300781 61.101562 33.945312 C 51.097656 40.644531 41.085938 47.332031 31.070312 54.015625 C 30.132812 54.644531 29.132812 55.183594 28.179688 55.789062 C 27.8125 56.023438 27.464844 56.085938 27.035156 55.976562 C 20.585938 54.34375 14.433594 51.949219 8.601562 48.75 C 7.941406 48.390625 7.316406 47.964844 6.710938 47.59375 C 6.703125 47.5 6.695312 47.472656 6.695312 47.445312 C 6.699219 47.421875 6.699219 47.390625 6.71875 47.375 C 6.792969 47.300781 6.871094 47.21875 6.957031 47.160156 C 15.328125 41.40625 23.707031 35.671875 32.480469 30.53125 C 32.683594 30.410156 32.898438 30.304688 33.183594 30.152344 C 33.21875 30.382812 33.261719 30.550781 33.261719 30.71875 C 33.308594 32.957031 33.339844 35.191406 33.386719 37.425781 C 33.402344 38.128906 33.152344 38.59375 32.515625 38.996094 C 29.996094 40.601562 27.519531 42.277344 25.03125 43.9375 C 24.550781 44.253906 24.40625 44.65625 24.585938 45.003906 C 24.773438 45.359375 25.328125 45.539062 25.792969 45.378906 C 25.972656 45.320312 26.144531 45.238281 26.300781 45.136719 C 28.890625 43.433594 31.46875 41.722656 34.0625 40.027344 C 34.90625 39.472656 35.253906 38.71875 35.257812 37.710938 C 35.261719 35.472656 35.324219 33.234375 35.363281 31.003906 C 35.371094 30.4375 35.363281 29.878906 35.363281 29.226562 C 35.464844 29.164062 35.644531 29.046875 35.828125 28.949219 C 37.21875 28.183594 38.617188 27.425781 40 26.644531 C 40.328125 26.464844 40.621094 26.382812 40.992188 26.511719 C 41.496094 26.6875 42.011719 26.613281 42.488281 26.382812 C 43.070312 26.101562 43.632812 25.777344 44.21875 25.511719 C 44.441406 25.410156 44.734375 25.351562 44.96875 25.398438 C 51.363281 26.765625 57.515625 28.851562 63.464844 31.5625 C 63.609375 31.628906 63.746094 31.710938 64.003906 31.84375 Z M 64.003906 31.84375 " fill-opacity="1" fill-rule="nonzero"/></g><path fill="#000000" d="M 42.195312 25.941406 C 41.851562 26.039062 41.496094 26.046875 41.113281 25.914062 C 41.382812 24.597656 41.1875 24.351562 39.800781 24.28125 C 39.773438 24 39.839844 23.765625 39.957031 23.554688 C 40.191406 23.386719 40.472656 23.265625 40.742188 23.3125 C 40.707031 23.347656 40.667969 23.394531 40.628906 23.453125 C 41.882812 24.382812 41.882812 24.382812 41.996094 25.628906 C 42.171875 25.550781 42.296875 25.429688 42.371094 25.28125 C 42.371094 25.507812 42.3125 25.738281 42.195312 25.941406 Z M 42.195312 25.941406 " fill-opacity="1" fill-rule="nonzero"/><g clip-path="url(#5a169460ae)"><path fill="#000000" d="M 58.652344 16.382812 C 58.582031 16.609375 58.375 16.84375 58.164062 16.964844 C 53.070312 19.863281 47.960938 22.75 42.863281 25.644531 C 42.640625 25.773438 42.417969 25.875 42.1875 25.941406 C 42.304688 25.738281 42.363281 25.507812 42.359375 25.28125 C 42.480469 25.039062 42.464844 24.714844 42.308594 24.339844 C 42.09375 23.84375 41.664062 23.566406 41.207031 23.335938 C 41.050781 23.257812 40.886719 23.175781 40.726562 23.316406 C 40.464844 23.269531 40.175781 23.390625 39.941406 23.558594 C 40.074219 23.324219 40.277344 23.128906 40.507812 22.953125 C 40.71875 22.789062 40.96875 22.675781 41.207031 22.546875 C 45.710938 20.023438 50.21875 17.5 54.722656 14.972656 C 55.121094 14.75 55.523438 14.527344 55.914062 14.292969 C 56.683594 13.832031 57.152344 13.867188 57.957031 14.480469 C 58.652344 14.996094 58.902344 15.625 58.652344 16.382812 Z M 58.652344 16.382812 " fill-opacity="1" fill-rule="nonzero"/></g><path fill="#cad6dd" d="M 24.90625 44.6875 C 25.234375 44.441406 25.449219 44.257812 25.6875 44.105469 C 27.714844 42.769531 29.742188 41.445312 31.769531 40.113281 C 32.171875 39.847656 32.558594 39.554688 32.972656 39.300781 C 33.636719 38.886719 33.894531 38.269531 33.894531 37.523438 C 33.894531 36.851562 33.863281 36.175781 33.863281 35.503906 C 33.859375 33.160156 33.863281 30.816406 33.863281 28.386719 C 34.042969 28.28125 34.292969 28.125 34.546875 27.980469 C 36.28125 26.996094 38.015625 26.015625 39.742188 25.03125 C 40.179688 24.785156 40.546875 24.796875 40.648438 25.101562 C 40.78125 25.480469 40.554688 25.683594 40.234375 25.855469 C 38.730469 26.695312 37.25 27.574219 35.722656 28.378906 C 35.042969 28.738281 34.820312 29.144531 34.835938 29.953125 C 34.882812 32.671875 34.804688 35.394531 34.75 38.113281 C 34.738281 38.636719 34.554688 39.105469 34.078125 39.421875 C 31.597656 41.046875 29.125 42.671875 26.648438 44.300781 C 26.402344 44.464844 26.140625 44.605469 25.890625 44.761719 C 25.621094 44.925781 25.355469 44.980469 24.90625 44.6875 Z M 24.90625 44.6875 " fill-opacity="1" fill-rule="nonzero"/></svg>