<svg xmlns="http://www.w3.org/2000/svg" xmlns:xlink="http://www.w3.org/1999/xlink" width="96" zoomAndPan="magnify" viewBox="0 0 72 72" height="96" preserveAspectRatio="xMidYMid meet" version="1.0"><defs><clipPath id="b00055389b"><path d="M 0 1.160156 L 72 1.160156 L 72 72 L 0 72 Z M 0 1.160156 " clip-rule="nonzero"/></clipPath><clipPath id="028f9d2ba6"><path d="M 36 1.160156 C 16.117188 1.160156 0 17.277344 0 37.160156 C 0 57.042969 16.117188 73.160156 36 73.160156 C 55.882812 73.160156 72 57.042969 72 37.160156 C 72 17.277344 55.882812 1.160156 36 1.160156 Z M 36 1.160156 " clip-rule="nonzero"/></clipPath><clipPath id="acf3d1ba62"><path d="M 8.199219 23.636719 L 63.671875 23.636719 L 63.671875 55.765625 L 8.199219 55.765625 Z M 8.199219 23.636719 " clip-rule="nonzero"/></clipPath><clipPath id="b7aeab477d"><path d="M 35.878906 39.578125 L 63.671875 39.578125 L 63.671875 58.113281 L 35.878906 58.113281 Z M 35.878906 39.578125 " clip-rule="nonzero"/></clipPath><clipPath id="cf8c1b8391"><path d="M 8.171875 39 L 36 39 L 36 58.125 L 8.171875 58.125 Z M 8.171875 39 " clip-rule="nonzero"/></clipPath><clipPath id="f4e0dd865e"><path d="M 8.199219 18.695312 L 63.671875 18.695312 L 63.671875 50.949219 L 8.199219 50.949219 Z M 8.199219 18.695312 " clip-rule="nonzero"/></clipPath><clipPath id="61997c77d6"><path d="M 35.878906 34.761719 L 63.671875 34.761719 L 63.671875 53.296875 L 35.878906 53.296875 Z M 35.878906 34.761719 " clip-rule="nonzero"/></clipPath><clipPath id="319e440573"><path d="M 8.171875 34 L 36 34 L 36 54 L 8.171875 54 Z M 8.171875 34 " clip-rule="nonzero"/></clipPath><clipPath id="9faf5f28a2"><path d="M 8.199219 13.875 L 63.671875 13.875 L 63.671875 46 L 8.199219 46 Z M 8.199219 13.875 " clip-rule="nonzero"/></clipPath><clipPath id="a7c5e7c1cc"><path d="M 35.878906 29.816406 L 63.671875 29.816406 L 63.671875 48.351562 L 35.878906 48.351562 Z M 35.878906 29.816406 " clip-rule="nonzero"/></clipPath><clipPath id="3c95a85e5b"><path d="M 8.171875 29 L 36 29 L 36 49 L 8.171875 49 Z M 8.171875 29 " clip-rule="nonzero"/></clipPath></defs><g clip-path="url(#b00055389b)"><g clip-path="url(#028f9d2ba6)"><path fill="#d8d5d5" d="M 0 1.160156 L 72 1.160156 L 72 73.160156 L 0 73.160156 Z M 0 1.160156 " fill-opacity="1" fill-rule="nonzero"/></g></g><g clip-path="url(#acf3d1ba62)"><path fill="#000000" d="M 35.996094 55.738281 L 63.792969 39.6875 L 35.996094 23.640625 L 8.203125 39.6875 L 35.996094 55.738281 " fill-opacity="1" fill-rule="nonzero"/></g><g clip-path="url(#b7aeab477d)"><path fill="#ffffff" d="M 35.996094 58.113281 L 63.792969 42.066406 L 63.792969 39.6875 L 35.996094 55.738281 L 35.996094 58.113281 " fill-opacity="1" fill-rule="nonzero"/></g><g clip-path="url(#cf8c1b8391)"><path fill="#ffffff" d="M 35.996094 58.113281 L 8.199219 42.066406 L 8.199219 39.6875 L 35.996094 55.738281 L 35.996094 58.113281 " fill-opacity="1" fill-rule="nonzero"/></g><g clip-path="url(#f4e0dd865e)"><path fill="#000000" d="M 35.996094 50.855469 L 63.792969 34.804688 L 35.996094 18.757812 L 8.203125 34.804688 L 35.996094 50.855469 " fill-opacity="1" fill-rule="nonzero"/></g><g clip-path="url(#61997c77d6)"><path fill="#ffffff" d="M 35.996094 53.230469 L 63.792969 37.183594 L 63.792969 34.804688 L 35.996094 50.855469 L 35.996094 53.230469 " fill-opacity="1" fill-rule="nonzero"/></g><g clip-path="url(#319e440573)"><path fill="#ffffff" d="M 35.996094 53.230469 L 8.199219 37.183594 L 8.199219 34.804688 L 35.996094 50.855469 L 35.996094 53.230469 " fill-opacity="1" fill-rule="nonzero"/></g><g clip-path="url(#9faf5f28a2)"><path fill="#000000" d="M 35.996094 45.972656 L 63.792969 29.925781 L 35.996094 13.875 L 8.203125 29.925781 L 35.996094 45.972656 " fill-opacity="1" fill-rule="nonzero"/></g><g clip-path="url(#a7c5e7c1cc)"><path fill="#ffffff" d="M 35.996094 48.351562 L 63.792969 32.300781 L 63.792969 29.925781 L 35.996094 45.972656 L 35.996094 48.351562 " fill-opacity="1" fill-rule="nonzero"/></g><g clip-path="url(#3c95a85e5b)"><path fill="#ffffff" d="M 35.996094 48.351562 L 8.199219 32.300781 L 8.199219 29.925781 L 35.996094 45.972656 L 35.996094 48.351562 " fill-opacity="1" fill-rule="nonzero"/></g></svg>