<svg xmlns="http://www.w3.org/2000/svg" xmlns:xlink="http://www.w3.org/1999/xlink" width="96" zoomAndPan="magnify" viewBox="0 0 72 72" height="96" preserveAspectRatio="xMidYMid meet" version="1.0"><defs><clipPath id="91bcaa5c74"><path d="M 36 0 C 16.117188 0 0 16.117188 0 36 C 0 55.882812 16.117188 72 36 72 C 55.882812 72 72 55.882812 72 36 C 72 16.117188 55.882812 0 36 0 Z M 36 0 " clip-rule="nonzero"/></clipPath><clipPath id="c9083f35b5"><path d="M 9.425781 10.585938 L 62.535156 10.585938 L 62.535156 63.691406 L 9.425781 63.691406 Z M 9.425781 10.585938 " clip-rule="nonzero"/></clipPath></defs><g clip-path="url(#91bcaa5c74)"><rect x="-7.2" width="86.4" fill="#d8d5d5" y="-7.2" height="86.4" fill-opacity="1"/></g><g clip-path="url(#c9083f35b5)"><path fill="#000000" d="M 46.648438 46.410156 L 40.929688 40.691406 L 54.390625 27.230469 L 60.109375 32.949219 Z M 59.792969 47.488281 L 46.332031 60.949219 L 40.613281 55.234375 L 54.074219 41.769531 Z M 31.789062 61.265625 L 26.074219 55.546875 L 39.535156 42.089844 L 45.25 47.804688 Z M 17.253906 61.582031 L 11.535156 55.863281 L 24.996094 42.402344 L 30.710938 48.121094 Z M 11.769531 41.246094 L 25.230469 27.785156 L 30.949219 33.503906 L 17.488281 46.960938 Z M 12.085938 26.703125 L 25.546875 13.242188 L 31.265625 18.960938 L 17.800781 32.425781 Z M 32.890625 20.125 C 32.894531 20.121094 32.894531 20.121094 32.894531 20.121094 L 40.085938 12.929688 L 45.804688 18.644531 L 32.34375 32.105469 L 26.628906 26.390625 Z M 45.570312 33.261719 L 32.105469 46.722656 L 26.386719 41.007812 L 39.851562 27.546875 Z M 54.707031 12.691406 L 60.425781 18.40625 L 46.960938 31.871094 L 41.246094 26.152344 Z M 62.21875 32.949219 C 62.21875 32.511719 62.042969 32.097656 61.734375 31.789062 L 55.785156 25.835938 L 62.050781 19.570312 C 62.359375 19.257812 62.53125 18.847656 62.53125 18.410156 C 62.53125 17.96875 62.359375 17.558594 62.050781 17.246094 L 55.871094 11.066406 C 55.226562 10.421875 54.183594 10.425781 53.542969 11.066406 L 47.28125 17.328125 L 41.25 11.300781 C 40.609375 10.660156 39.566406 10.660156 38.921875 11.300781 L 32.660156 17.566406 L 26.710938 11.617188 C 26.070312 10.976562 25.023438 10.976562 24.386719 11.617188 L 10.460938 25.542969 C 10.148438 25.855469 9.980469 26.265625 9.980469 26.703125 C 9.980469 27.144531 10.148438 27.554688 10.460938 27.867188 L 16.410156 33.816406 L 10.144531 40.082031 C 9.832031 40.394531 9.660156 40.804688 9.660156 41.246094 C 9.660156 41.683594 9.832031 42.097656 10.140625 42.40625 L 16.171875 48.433594 L 9.90625 54.703125 C 9.265625 55.34375 9.265625 56.382812 9.90625 57.027344 L 16.089844 63.210938 C 16.410156 63.53125 16.832031 63.691406 17.253906 63.691406 C 17.671875 63.691406 18.089844 63.53125 18.414062 63.210938 L 24.679688 56.941406 L 30.628906 62.894531 C 30.949219 63.210938 31.371094 63.371094 31.789062 63.371094 C 32.210938 63.371094 32.632812 63.210938 32.953125 62.894531 L 39.21875 56.625 L 45.167969 62.574219 C 45.488281 62.898438 45.90625 63.054688 46.332031 63.054688 C 46.753906 63.054688 47.171875 62.898438 47.492188 62.574219 L 61.417969 48.652344 C 61.730469 48.339844 61.898438 47.929688 61.898438 47.488281 C 61.898438 47.050781 61.730469 46.636719 61.417969 46.324219 L 55.46875 40.375 L 61.734375 34.109375 C 62.042969 33.800781 62.21875 33.386719 62.21875 32.949219 " fill-opacity="1" fill-rule="nonzero"/></g></svg>